<?xml version="1.0" encoding="UTF-8"?>
<svg id="Layer_2" data-name="Layer 2" xmlns="http://www.w3.org/2000/svg" xmlns:xlink="http://www.w3.org/1999/xlink" viewBox="0 0 576 720">
  <defs>
    <style>
      .cls-1, .cls-2, .cls-3 {
        fill: none;
      }

      .cls-4 {
        fill: #086623;
      }

      .cls-5, .cls-6, .cls-7, .cls-8, .cls-9, .cls-10, .cls-11 {
        isolation: isolate;
      }

      .cls-5, .cls-12, .cls-7, .cls-8, .cls-9, .cls-10, .cls-11 {
        fill: #072c68;
      }

      .cls-5, .cls-7, .cls-8, .cls-9, .cls-10, .cls-11 {
        font-family: LibreBaskerville-Bold, 'Libre Baskerville';
        font-size: 52.147px;
        font-weight: 700;
      }

      .cls-13 {
        fill: #d2ac47;
      }

      .cls-2 {
        stroke: #072c68;
      }

      .cls-2, .cls-3 {
        stroke-miterlimit: 10;
        stroke-width: 8px;
      }

      .cls-14 {
        clip-path: url(#clippath-1);
      }

      .cls-15 {
        clip-path: url(#clippath-3);
      }

      .cls-16 {
        clip-path: url(#clippath-2);
      }

      .cls-3 {
        stroke: #a50417;
      }

      .cls-7 {
        letter-spacing: -.042em;
      }

      .cls-8 {
        letter-spacing: -.04em;
      }

      .cls-9 {
        letter-spacing: -.03em;
      }

      .cls-10 {
        letter-spacing: -.029em;
      }

      .cls-11 {
        letter-spacing: -.029em;
      }

      .cls-17 {
        fill: #a50417;
      }

      .cls-18 {
        clip-path: url(#clippath);
      }
    </style>
    <clipPath id="clippath">
      <rect class="cls-1" x="72.396" y="343.386" width="35.387" height="12.089"/>
    </clipPath>
    <clipPath id="clippath-1">
      <rect class="cls-1" x="76.929" y="316.097" width="30.854" height="33.333"/>
    </clipPath>
    <clipPath id="clippath-2">
      <rect class="cls-1" x="470.363" y="343.164" width="35.594" height="12.089"/>
    </clipPath>
    <clipPath id="clippath-3">
      <rect class="cls-1" x="470.363" y="316.319" width="31.06" height="32.89"/>
    </clipPath>
  </defs>
  <ellipse class="cls-3" cx="289.797" cy="358.082" rx="240.199" ry="237.316"/>
  <ellipse class="cls-2" cx="289.773" cy="359.084" rx="257.1" ry="254.846"/>
  <circle class="cls-2" cx="289.615" cy="357.256" r="162.41"/>
  <g>
    <g>
      <g class="cls-18">
        <path class="cls-13" d="M98.226,346.526c2.036-.62,4.032-.626,6.003-.018.608.03,1.794,1.181,3.559,3.441-2.013-.537-3.359-.638-4.038-.307-.118,0-.726.313-1.83.939-.82.136-1.759.413-2.81.82-3.081,1.871-4.746,2.739-4.994,2.603-.626.124-1.257.112-1.895-.024-.679-.094-2.225-.519-4.64-1.269-.543-.13-1.015-.189-1.428-.183-.218-.012-.643.1-1.263.342l-2.91,1.411c-.761.26-1.499.378-2.214.354-1.387.006-2.391-.142-3.005-.431-.531-.266-1.015-.697-1.446-1.293l-.927-.561c-.112-.1-.242-.254-.39-.478l-.791-3.081.041-1.558-.608-1.771c-.13-.49.053-.944.549-1.346.85-.626,2.456-.785,4.834-.478.761.118,1.305.236,1.629.348,2.32.862,3.878,1.375,4.681,1.552,1.647.419,3.276.761,4.888,1.033l9.002-.047.003.002Z"/>
      </g>
      <g class="cls-14">
        <path class="cls-13" d="M100.097,348.102c-.053-.395.366-1.139,1.251-2.243.153-.283,1.222-1.198,3.188-2.745.254-.112.573-.797.956-2.06.148-.254.761-.761,1.853-1.517-.655-.077-2.019.254-4.097.98l-5.72,2.55c-.218.118-.443.118-.655,0-.177-.047-.401-.673-.661-1.889-.537-3.654-.998-5.968-1.387-6.942-.496-1.428-1.34-2.898-2.526-4.421-1.086-1.517-3.034-3.601-5.85-6.263-3.919-3.695-6.983-6.168-9.179-7.42-.094-.012-.136.094-.124.313.236.573.449,1.942.632,4.114.083.254.236.525.466.826,1.122.986,1.706,1.629,1.759,1.93.165,1.482.697,2.904,1.611,4.268l.508,3.666c.378.567.685,1.423.921,2.574l.826,1.175.348,1.694c.578.661.88,1.139.897,1.423.1.13.118.897.059,2.302,0,.13.118.49.366,1.08-.041,1.216.142,2.278.537,3.188.071-.1-.018.756-.277,2.568l14.297.85h0Z"/>
      </g>
    </g>
    <g>
      <g class="cls-16">
        <path class="cls-13" d="M479.967,346.747c-2.031-.62-4.032-.626-6.003-.018-.602.03-1.789,1.175-3.559,3.441,2.013-.537,3.359-.643,4.043-.307.112-.006.726.307,1.83.939.82.136,1.753.407,2.81.82,3.081,1.865,4.746,2.739,4.994,2.603.626.124,1.251.112,1.889-.024.685-.1,2.231-.519,4.64-1.269.543-.13,1.021-.189,1.434-.183.218-.012.638.1,1.263.342l2.904,1.411c.767.26,1.505.378,2.214.354,1.393,0,2.397-.142,3.01-.431.531-.266,1.015-.702,1.44-1.293l.933-.567c.112-.094.242-.254.39-.472l.791-3.081-.047-1.558.608-1.771c.13-.496-.047-.944-.543-1.346-.85-.626-2.461-.785-4.834-.484-.761.124-1.305.242-1.629.354-2.32.862-3.884,1.375-4.687,1.552-1.641.419-3.27.761-4.882,1.033l-9.008-.047v.002Z"/>
      </g>
      <g class="cls-15">
        <path class="cls-13" d="M478.101,348.323c.053-.395-.366-1.145-1.251-2.243-.159-.289-1.222-1.204-3.188-2.745-.26-.112-.578-.797-.956-2.06-.148-.254-.761-.761-1.853-1.517.649-.077,2.013.254,4.091.98l5.72,2.55c.224.118.449.112.661-.006.177-.041.395-.673.661-1.883.531-3.654.998-5.974,1.387-6.948.496-1.423,1.34-2.892,2.526-4.415,1.086-1.517,3.034-3.607,5.844-6.263,3.925-3.695,6.983-6.168,9.185-7.42.094-.012.136.089.124.313-.242.567-.449,1.942-.632,4.114-.083.248-.242.525-.466.826-1.122.98-1.712,1.623-1.765,1.93-.159,1.482-.697,2.904-1.606,4.268l-.508,3.66c-.378.567-.685,1.428-.921,2.574l-.826,1.175-.348,1.7c-.578.661-.88,1.133-.903,1.417-.094.13-.118.903-.059,2.308.006.13-.118.484-.36,1.08.041,1.216-.142,2.278-.537,3.182-.071-.094.018.761.272,2.574l-14.291.85h-.001Z"/>
      </g>
    </g>
  </g>
  <g>
    <path class="cls-12" d="M71.551,390.249l1.922-.433c.406,1.508.83,2.611,1.274,3.31.443.7,1.079,1.099,1.909,1.197.829.097,1.997-.023,3.502-.362l22.199-4.989c1.505-.338,2.61-.694,3.319-1.066.705-.371,1.133-.903,1.281-1.593.147-.691.116-1.652-.094-2.884l1.923-.432,3.659,16.281c1.141,5.072,1.237,9.172.292,12.297-.947,3.126-2.846,5.009-5.695,5.65-3.812.856-7.153-1.429-10.022-6.859l-.191.043c.562,2.503.614,4.756.155,6.759-.458,2.004-1.327,3.674-2.608,5.011-1.282,1.334-2.882,2.22-4.805,2.651-1.634.367-3.152.272-4.556-.281-1.404-.556-2.697-1.518-3.878-2.885-2.279-2.65-4.012-6.612-5.197-11.888l-4.39-19.527h.001ZM78.951,409.473c1.224,5.444,4.157,7.645,8.804,6.6,2.85-.641,4.711-2.089,5.584-4.346.445-1.165.629-2.592.552-4.28-.076-1.688-.373-3.681-.89-5.981l-.547-2.434-9.61,2.16c-1.953.438-3.234,1.294-3.839,2.568-.605,1.272-.624,3.177-.054,5.713h0ZM96.009,401.375c.342,1.522.776,2.818,1.304,3.891.527,1.071,1.131,1.922,1.811,2.551,1.422,1.385,3.253,1.826,5.496,1.322,2.338-.526,3.891-1.515,4.658-2.967.767-1.451.848-3.529.239-6.234l-.81-3.601c-.137-.609-.478-.853-1.022-.73l-12.348,2.776.672,2.992h0Z"/>
    <path class="cls-12" d="M83.79,436.767l1.816-.762c.662,1.413,1.297,2.415,1.901,3.008.604.593,1.411.818,2.42.677s2.452-.604,4.329-1.393l18.258-7.653c1.726-.724,3-1.38,3.82-1.968.821-.59,1.283-1.291,1.388-2.104.104-.813-.089-1.889-.577-3.224l1.816-.762,6.773,16.157-1.816.762c-.61-1.285-1.242-2.177-1.895-2.673-.654-.497-1.478-.658-2.474-.486-.995.174-2.355.622-4.082,1.346l-18.258,7.653c-1.877.788-3.22,1.491-4.027,2.112-.808.62-1.213,1.354-1.214,2.199,0,.847.27,2.002.812,3.465l-1.817.762-7.175-17.116h.002Z"/>
    <path class="cls-12" d="M94.973,463.325l1.654-1.07c.902,1.274,1.683,2.163,2.34,2.666.657.504,1.395.657,2.205.462.812-.195,1.866-.712,3.162-1.551l19.103-12.358c1.295-.838,2.21-1.554,2.744-2.147.535-.594.753-1.24.653-1.938-.101-.7-.463-1.59-1.084-2.674l1.653-1.069,9.065,14.011c2.823,4.365,4.332,8.179,4.525,11.438.192,3.26-.938,5.684-3.391,7.271-3.28,2.123-7.205,1.133-11.775-2.969l-.165.107c1.393,2.152,2.221,4.248,2.483,6.287.264,2.037.024,3.905-.716,5.602-.74,1.697-1.937,3.081-3.591,4.15-1.405.909-2.863,1.347-4.371,1.312-1.51-.035-3.055-.49-4.637-1.365-3.055-1.698-6.05-4.816-8.988-9.356l-10.872-16.806.003-.003ZM108.565,478.805c3.03,4.685,6.546,5.734,10.542,3.148,2.453-1.588,3.699-3.591,3.738-6.009.014-1.247-.307-2.65-.963-4.208-.656-1.557-1.624-3.325-2.904-5.304l-1.355-2.095-8.27,5.35c-1.681,1.088-2.586,2.334-2.714,3.737-.128,1.404.515,3.197,1.926,5.38h0ZM121.771,465.309c.847,1.309,1.702,2.374,2.568,3.198.864.823,1.725,1.412,2.581,1.767,1.812.809,3.685.589,5.614-.66,2.012-1.301,3.127-2.766,3.346-4.393.217-1.627-.427-3.605-1.934-5.934l-2.005-3.099c-.339-.524-.743-.634-1.211-.332l-10.627,6.876,1.667,2.576h.001Z"/>
    <path class="cls-12" d="M148.366,529.232l-25.278-25.378,1.395-1.39c1.147,1.059,2.095,1.766,2.844,2.122.748.355,1.493.347,2.234-.025.741-.371,1.658-1.102,2.752-2.19l16.12-16.057c1.093-1.089,1.827-1.992,2.202-2.708.375-.717.424-1.425.144-2.124-.279-.701-.887-1.564-1.817-2.594l1.396-1.39,12.657,12.707-1.395,1.391c-1.125-1.082-2.066-1.782-2.825-2.104-.76-.319-1.521-.281-2.285.113-.766.395-1.741,1.184-2.928,2.365l-14.619,14.562c-1.303,1.298-2.09,2.486-2.36,3.562-.271,1.077-.045,2.222.677,3.436.722,1.212,1.927,2.666,3.614,4.361,1.884,1.891,3.544,3.232,4.983,4.025,1.438.793,2.887,1.061,4.348.806,1.459-.256,3.187-1.01,5.182-2.264l1.468,1.474-8.507,7.299h-.002Z"/>
    <path class="cls-12" d="M185.714,514.385l-6.697,10.565c1.874,1.187,3.416,2.087,4.629,2.7,1.211.613,2.241.945,3.091.998.849.053,1.628-.173,2.337-.676.709-.504,1.474-1.272,2.294-2.308l1.624,1.03-7.726,12.188-1.624-1.03c.545-1.249.875-2.303.989-3.164.114-.859-.034-1.644-.447-2.353-.413-.708-1.141-1.472-2.182-2.287-1.043-.815-2.486-1.809-4.329-2.978l-5.433,8.568c-.755,1.192-1.119,2.283-1.09,3.272.028.991.501,1.98,1.414,2.967s2.306,2.073,4.18,3.262c2.224,1.41,4.135,2.33,5.73,2.759,1.595.428,3.092.347,4.492-.242,1.399-.591,2.901-1.698,4.508-3.323l1.756,1.113-6.74,9.079-29.771-18.872,1.055-1.664c1.353.78,2.433,1.261,3.241,1.442.808.183,1.532.01,2.173-.518.643-.525,1.375-1.439,2.203-2.743l12.181-19.217c.826-1.303,1.342-2.346,1.552-3.127.207-.781.098-1.482-.329-2.103-.428-.622-1.21-1.331-2.345-2.129l1.055-1.663,27.751,17.591-4.86,8.348-1.888-1.196c.749-1.702,1.09-3.177,1.02-4.426s-.603-2.434-1.598-3.55c-.994-1.116-2.532-2.334-4.609-3.651l-4.962-3.146c-.731-.463-1.25-.665-1.555-.605-.306.06-.667.422-1.09,1.087v.002Z"/>
    <path class="cls-12" d="M213.549,566.019l.596-1.878c1.506.41,2.682.577,3.523.5.843-.076,1.537-.545,2.083-1.404.547-.859,1.128-2.26,1.745-4.199l6-18.866c.566-1.784.892-3.179.976-4.186.083-1.007-.151-1.813-.704-2.421-.553-.605-1.497-1.156-2.829-1.648l.596-1.878,16.696,5.31-.597,1.877c-1.375-.368-2.463-.465-3.263-.287-.803.176-1.459.697-1.973,1.567-.513.871-1.053,2.198-1.62,3.981l-6,18.866c-.615,1.94-.95,3.419-1.001,4.437-.051,1.017.246,1.801.89,2.349.644.55,1.699,1.093,3.165,1.627l-.597,1.878-17.687-5.624h.001Z"/>
    <path class="cls-12" d="M274.204,579.385l-19.352-33.49-.205-.022-2.406,21.037c-.247,2.153-.299,3.759-.158,4.815.141,1.058.579,1.794,1.317,2.208.737.415,1.859.742,3.367.979l-.224,1.958-15.342-1.755.225-1.957c1.694.128,2.982.077,3.863-.153.882-.229,1.524-.816,1.929-1.762.403-.945.723-2.429.954-4.451l2.249-19.67c.213-1.858.246-3.292.1-4.3-.146-1.009-.584-1.76-1.312-2.258-.728-.495-1.861-.864-3.404-1.107l.224-1.958,14.411,1.648,17.581,30.661.207.023,2.164-18.936c.248-2.152.3-3.758.159-4.814s-.57-1.8-1.289-2.229c-.718-.429-1.851-.748-3.396-.958l.224-1.957,15.341,1.755-.225,1.956c-1.69-.16-2.978-.117-3.86.13-.884.244-1.526.841-1.932,1.785-.405.945-.722,2.43-.953,4.452l-3.336,29.16-6.921-.791h0Z"/>
    <path class="cls-12" d="M299.212,579.331l-2.119-12.402,2.016-.217c.812,3.017,2.393,5.306,4.739,6.869,2.348,1.564,5.071,2.179,8.173,1.843,2.586-.277,4.608-1.065,6.073-2.361,1.463-1.298,2.1-2.844,1.904-4.639-.111-1.045-.457-1.899-1.033-2.563-.577-.663-1.601-1.271-3.072-1.823s-3.603-1.155-6.392-1.813c-4.153-1.005-7.309-2.39-9.469-4.155-2.159-1.766-3.379-3.953-3.661-6.565-.221-2.057.128-3.918,1.046-5.586.918-1.667,2.285-3.045,4.104-4.132,1.817-1.088,3.983-1.767,6.5-2.038,3.411-.367,6.711.335,9.899,2.104l.667-2.549,1.241-.133,1.708,10.515-2.017.217c-1.115-2.587-2.629-4.497-4.538-5.728-1.91-1.229-4.021-1.721-6.33-1.473-2.102.228-3.771.911-5.007,2.05-1.237,1.142-1.771,2.495-1.602,4.062.098.914.416,1.681.953,2.3s1.478,1.178,2.821,1.678c1.343.499,3.25,1.045,5.72,1.637,5.01,1.211,8.673,2.69,10.987,4.438,2.314,1.75,3.618,3.978,3.91,6.688.236,2.188-.21,4.201-1.337,6.038-1.126,1.838-2.793,3.355-4.999,4.551-2.208,1.195-4.827,1.957-7.859,2.283-2.033.22-3.923.15-5.67-.206-1.746-.356-3.546-1.046-5.398-2.068l-.717,3.049-1.242.134v-.005Z"/>
    <path class="cls-12" d="M364.922,526.041l3.831,10.146-2.126.689c-.801-2.02-1.706-3.494-2.718-4.426-1.013-.932-2.178-1.436-3.494-1.51-1.317-.073-2.865.178-4.647.754-1.715.555-2.979,1.009-3.794,1.358-.816.351-1.32.679-1.513.981-.194.305-.229.644-.108,1.019l7.948,24.551c.436,1.343.935,2.382,1.5,3.112.564.731,1.388,1.138,2.47,1.218,1.084.082,2.607-.161,4.573-.729l.607,1.873-20.726,6.71-.605-1.874c1.957-.703,3.352-1.404,4.181-2.104.83-.7,1.268-1.515,1.313-2.444.046-.928-.149-2.064-.584-3.408l-7.948-24.551c-.122-.375-.333-.634-.635-.778-.302-.144-.828-.137-1.578.02-.751.157-1.868.476-3.352.955-1.188.385-2.305.816-3.353,1.293-1.048.478-1.906,1.092-2.573,1.843-.668.751-1.077,1.737-1.228,2.959-.15,1.224.05,2.798.6,4.724l-1.929.625-2.842-10.468,38.729-12.538h.001Z"/>
    <path class="cls-12" d="M385.102,557.433l-.93-1.736c1.345-.793,2.283-1.519,2.816-2.176s.681-1.481.445-2.474c-.235-.99-.832-2.383-1.793-4.179l-9.337-17.456c-.882-1.65-1.656-2.856-2.318-3.619-.664-.762-1.405-1.155-2.226-1.184-.819-.025-1.872.267-3.156.879l-.929-1.737,15.449-8.264.929,1.737c-1.223.729-2.05,1.441-2.482,2.138-.433.697-.517,1.533-.251,2.508s.841,2.287,1.724,3.937l9.337,17.457c.961,1.796,1.787,3.065,2.48,3.812.694.746,1.462,1.08,2.306,1.002.842-.078,1.966-.457,3.372-1.134l.929,1.736-16.365,8.753h0Z"/>
    <path class="cls-12" d="M418.508,489.211l7.126,8.178-1.753,1.387c-1.453-1.614-2.815-2.682-4.089-3.203-1.273-.52-2.54-.586-3.801-.197-1.261.391-2.626,1.164-4.094,2.325-1.414,1.117-2.441,1.982-3.085,2.594-.642.614-1,1.097-1.074,1.448-.076.353.009.683.253.992l16.001,20.244c.875,1.109,1.705,1.906,2.489,2.396.785.488,1.698.583,2.741.281,1.042-.301,2.387-1.059,4.031-2.276l1.223,1.545-17.091,13.507-1.221-1.545c1.591-1.341,2.652-2.483,3.188-3.429.533-.945.659-1.861.379-2.748-.28-.886-.86-1.885-1.735-2.991l-16.001-20.246c-.244-.309-.532-.478-.865-.508-.334-.029-.824.16-1.474.567-.648.408-1.586,1.096-2.809,2.062-.979.775-1.876,1.568-2.692,2.38s-1.406,1.687-1.77,2.622c-.365.938-.405,2.005-.12,3.202.284,1.198,1.021,2.605,2.207,4.219l-1.591,1.258-6.311-8.823,31.937-25.241h0Z"/>
    <path class="cls-12" d="M452.954,465.895l8.186,6.479c2.909,2.304,4.91,4.629,6.005,6.975,1.093,2.347,1.303,4.822.624,7.424-.678,2.603-2.254,5.466-4.727,8.59-3.464,4.376-6.866,6.888-10.207,7.537-3.339.649-6.914-.534-10.724-3.55l-10.58-8.375c-1.339-1.06-2.424-1.885-3.254-2.476-.83-.592-1.514-1.01-2.05-1.259-.537-.248-1.009-.378-1.418-.392-.553-.041-1.077.119-1.572.479-.494.36-1.118,1.016-1.87,1.967l-1.545-1.223,11.584-14.634,1.544,1.223c-.902,1.142-1.512,2.029-1.826,2.665-.314.635-.423,1.234-.325,1.798.133.68.576,1.43,1.331,2.247.755.82,2.137,2.022,4.145,3.612l10.117,8.008c2.909,2.303,5.598,3.349,8.067,3.138,2.47-.21,4.78-1.675,6.932-4.393,4.432-5.599,3.7-10.73-2.195-15.396l-8.92-7.061c-2.137-1.691-3.777-2.858-4.924-3.501-1.146-.641-2.146-.925-3.001-.85-.641.068-1.286.342-1.938.82s-1.396,1.249-2.235,2.309l-1.544-1.223,10.454-13.208,1.545,1.224c-.796,1.006-1.338,1.837-1.628,2.491-.288.656-.37,1.275-.246,1.86.166.794.706,1.686,1.619,2.674.914.988,2.439,2.328,4.576,4.02h0Z"/>
    <path class="cls-12" d="M464.323,415.977l10.053,4.074-.938,2.029c-2.026-.783-3.724-1.119-5.096-1.009-1.371.11-2.531.625-3.479,1.542s-1.815,2.225-2.601,3.923c-.757,1.637-1.282,2.873-1.579,3.709-.296.837-.397,1.431-.306,1.777.092.349.317.605.675.771l23.424,10.827c1.281.594,2.383.932,3.304,1.013.921.082,1.777-.246,2.571-.988.795-.739,1.65-2.022,2.568-3.852l1.788.826-9.141,19.772-1.788-.826c.813-1.916,1.244-3.415,1.293-4.5.05-1.084-.252-1.958-.904-2.623-.65-.663-1.617-1.292-2.898-1.885l-23.424-10.828c-.357-.165-.692-.186-1.002-.062-.311.124-.663.516-1.058,1.173-.394.658-.918,1.694-1.573,3.109-.523,1.133-.965,2.246-1.326,3.339-.36,1.094-.492,2.142-.394,3.141.099,1,.546,1.97,1.34,2.91.796.94,2.087,1.863,3.876,2.766l-.851,1.841-9.616-5.019,17.081-36.95h.001Z"/>
    <path class="cls-12" d="M471.877,401.851l12.23,2.621c.464-2.168.774-3.929.93-5.277.154-1.35.109-2.431-.137-3.246-.244-.813-.726-1.467-1.443-1.957-.717-.49-1.703-.941-2.958-1.353l.403-1.881,14.108,3.023-.403,1.882c-1.359-.079-2.463-.022-3.309.167-.848.191-1.532.603-2.053,1.235-.522.632-.985,1.579-1.391,2.839-.403,1.262-.834,2.958-1.293,5.094l9.92,2.125c1.38.296,2.53.26,3.448-.111.919-.369,1.683-1.154,2.294-2.353.608-1.199,1.146-2.882,1.61-5.052.553-2.574.753-4.686.602-6.331s-.745-3.021-1.785-4.131c-1.037-1.108-2.597-2.134-4.679-3.076l.437-2.033,10.854,3.176-7.388,34.466-1.927-.412c.264-1.539.341-2.719.229-3.54-.108-.821-.521-1.441-1.237-1.861-.717-.419-1.828-.789-3.338-1.113l-22.245-4.768c-1.51-.323-2.666-.447-3.472-.372-.805.075-1.426.421-1.859,1.037-.435.616-.828,1.595-1.184,2.937l-1.927-.413,6.887-32.127,9.514,1.667-.469,2.186c-1.854-.113-3.356.078-4.505.576-1.147.499-2.072,1.409-2.774,2.729-.704,1.32-1.312,3.184-1.828,5.59l-1.231,5.744c-.182.848-.191,1.404-.03,1.669s.627.479,1.398.646v-.002Z"/>
  </g>
  <g class="cls-6">
    <text class="cls-5" transform="translate(117.787 302.572) rotate(-64.778) scale(1.037 1)"><tspan x="0" y="0">C</tspan></text>
  </g>
  <g class="cls-6">
    <text class="cls-7" transform="translate(136.43 262.89) rotate(-50.922) scale(1.037 1)"><tspan x="0" y="0">A</tspan></text>
  </g>
  <g class="cls-6">
    <text class="cls-9" transform="translate(163.822 229.513) rotate(-37.958) scale(1.037 1)"><tspan x="0" y="0">P</tspan></text>
  </g>
  <g class="cls-6">
    <text class="cls-5" transform="translate(194.644 206.293) rotate(-28.184) scale(1.037 1)"><tspan x="0" y="0">I</tspan></text>
  </g>
  <g class="cls-6">
    <text class="cls-11" transform="translate(214.467 194.512) rotate(-17.516) scale(1.037 1)"><tspan x="0" y="0">T</tspan></text>
  </g>
  <g class="cls-6">
    <text class="cls-5" transform="translate(256.034 180.819) rotate(-2.61) scale(1.037 1)"><tspan x="0" y="0">O</tspan></text>
  </g>
  <g class="cls-6">
    <text class="cls-10" transform="translate(305.572 179.024) rotate(11.635) scale(1.037 1)"><tspan x="0" y="0">L</tspan></text>
  </g>
  <g class="cls-6">
    <text class="cls-5" transform="translate(357.859 191.516) rotate(29.207) scale(1.037 1)"><tspan x="0" y="0">C</tspan></text>
  </g>
  <g class="cls-6">
    <text class="cls-5" transform="translate(395.912 213.901) rotate(39.983) scale(1.037 1)"><tspan x="0" y="0">I</tspan></text>
  </g>
  <g class="cls-6">
    <text class="cls-10" transform="translate(414.208 227.903) rotate(50.749) scale(1.037 1)"><tspan x="0" y="0">T</tspan></text>
  </g>
  <g class="cls-6">
    <text class="cls-8" transform="translate(442.006 262.157) rotate(64.139) scale(1.037 1)"><tspan x="0" y="0">Y</tspan></text>
  </g>
  <g>
    <path class="cls-4" d="M213.774,409.659c-.192-.239-.494-.35-.792-.374-.308.004-.596.149-.783.394-6.883,9.023-6.865,18.175-4.845,25.142-1.996-2.288-3.886-4.6-5.672-6.932,3.639-7.466,10.443-22.288-1.403-37.644-.189-.246-.482-.39-.792-.39h-.003c-.311,0-.604.146-.792.394-6.545,8.581-7.497,16.874-6.399,23.623-2.26-3.9-4.269-7.837-6.034-11.796.174-.179.344-.355.527-.542,5.359-5.486,14.328-14.67,7.647-35.823-.097-.307-.335-.548-.641-.648-.305-.1-.64-.048-.9.141-8.802,6.392-11.711,14.756-12.123,22.065-1.309-4.378-2.349-8.761-3.148-13.131.072-.04.134-.076.207-.117,6.712-3.731,17.946-9.976,17.94-33.703,0-.321-.154-.622-.414-.81s-.594-.239-.898-.14c-9.514,3.12-15.93,9.884-18.554,19.561-.033.123-.059.242-.09.364-.299-4.81-.323-9.577-.1-14.276.187-.064.37-.127.565-.193,7.255-2.464,20.759-7.05,24.854-30.209.056-.316-.043-.639-.266-.87s-.543-.34-.86-.294c-12.171,1.736-19.036,9.407-22.768,16.779.722-4.544,1.664-8.992,2.796-13.317.394-.071.805-.141,1.234-.214,8.042-1.373,21.503-3.669,28.65-25.481.1-.305.048-.639-.141-.898-.188-.259-.489-.413-.81-.413-11.268,0-18.913,5.404-23.829,11.355.883-2.243,1.816-4.435,2.793-6.574,6.151-2.792,21.657-11.813,25.629-32.966.059-.312-.034-.633-.25-.865s-.53-.351-.844-.313c-6.672.747-13.84,4.982-19.175,11.331-5.31,6.319-8.137,13.935-7.875,21.099-.89,1.931-1.745,3.905-2.562,5.92.639-8.302-.224-18.131-5.66-27.402-.168-.287-.468-.471-.8-.492-.331-.021-.652.125-.855.388-13.223,17.164-3.169,35.663,1.125,43.562.189.348.363.669.527.973-.971,3.682-1.807,7.451-2.491,11.293-1.549-7.004-5.115-14.669-12.434-22.674-.225-.246-.559-.36-.888-.314-.33.05-.613.262-.755.564-9.408,20.076,6.381,34.453,11.57,39.177.197.179.372.34.537.491-.213,4.185-.234,8.423-.046,12.697-2.815-5.952-7.875-12.262-17.633-18.584-.286-.185-.646-.212-.955-.072-.31.14-.527.427-.578.763-3.296,21.972,16.643,33.215,21.142,35.447.758,4.145,1.733,8.3,2.939,12.452-3.981-6.527-10.242-12.892-23.239-15.99-.313-.076-.643.005-.886.216-.243.21-.371.524-.342.845,1.898,21.474,24.933,29.931,30.39,31.106,1.66,3.718,3.535,7.415,5.62,11.083-5.812-5.318-13.856-10.044-25.425-10.518-.32-.032-.62.124-.819.37-.199.247-.27.572-.19.879,4.928,19.088,26.485,24.817,35.076,24.817.62,0,1.163-.033,1.637-.09,1.45,1.887,2.968,3.761,4.553,5.621-5.152-2.882-12.165-4.526-22.013-1.555-.294.088-.532.308-.644.595-.111.286-.085.608.072.873,4.872,8.205,12.104,12.429,20.933,12.429,3.579,0,7.421-.694,11.475-2.1l.115-.039c.008-.003.015-.008.023-.011.05-.019.095-.044.141-.07.028-.016.058-.029.085-.048.042-.03.079-.066.116-.103.023-.022.048-.042.069-.066.035-.041.062-.087.09-.133.016-.026.035-.05.049-.078.003-.006.007-.01.01-.016.239-.52.529-1.104.849-1.751,3.161-6.385,9.736-19.672-1.569-33.765v-.005Z"/>
    <path class="cls-13" d="M368.957,477.492c-2.272-4.458-6.771-12.673-9.134-16.964,2.137-.151,4.236-.237,6.273-.237-7.225-11.128-14.836-15.522-14.836-42.926h0c-22.703,4.247-45.793,13.55-62.009,29.634-18.271-14.49-33.119-22.678-60.969-29.557,0,21.524-6.38,31.298-13.839,41.437h.032c.316,0,2.396.133,5.842.698-2.243,4.042-7.155,12.934-9.569,17.641l-.374.729h.818c37.225,0,59.858,9.155,72.017,14.074,2.816,1.139,5.066,2.047,6.816,2.566l.048.234.383-.108.383.108.047-.234c1.736-.519,3.941-1.415,6.702-2.539,11.861-4.833,33.939-13.828,70.922-13.828h.816l-.371-.728h.002ZM347.346,422.238c.715,19.565,5.795,26.936,11.25,34.369-19.211,1.572-41.955,8.982-58.19,21.622-3.008,2.048-6.051,4.294-9.114,6.767l.271-34.656.504-.5c16.273-16.141,38.245-23.888,55.278-27.602h.001ZM232.161,422.572c25.094,6.745,38.814,15.039,54.604,27.562l.795.631-.259,33.082c-11.258-7.219-21.358-12.488-30.064-16.324-6.427-3.107-12.259-5.391-17.141-7.034-7.512-2.528-13.955-3.97-18.536-4.757,5.687-8.546,9.852-17.774,10.6-33.159h0Z"/>
    <g>
      <path class="cls-1" d="M270.571,307.328c-19.5,6.88-32.9,24.96-34.72,48.35,5.13-1.07,10.28-1.96,15.41-2.69,1.52-20.45,8.7-36.87,19.31-45.66Z"/>
      <path class="cls-1" d="M232.881,371.728l-.4,19.8c1.82-.43,3.63-.83,5.43-1.21l.41-19.84c-1.81.39-3.63.8-5.44,1.25Z"/>
      <path class="cls-1" d="M257.381,367.258l-.4,19.84c2.86-.36,5.7-.67,8.49-.93l.41-19.83c-2.81.25-5.64.56-8.5.92h0Z"/>
      <path class="cls-1" d="M243.341,369.458l-.41,19.85c3.04-.57,6.05-1.08,9.03-1.52l.41-19.85c-3,.44-6.01.95-9.03,1.52Z"/>
      <path class="cls-1" d="M273.941,350.808c.72-19.24,3.46-37.12,8.54-45.5-14.62,4.32-25.16,22.49-27.17,47.15,6.28-.78,12.52-1.31,18.63-1.65Z"/>
      <path class="cls-1" d="M328.411,352.728c5.54.71,10.46,1.53,14.58,2.36-1.62-12.89-7.04-24.69-15.67-33.84-5.28-5.6-11.47-9.9-18.21-12.77,10.12,9.1,17.34,25.09,19.3,44.25h0Z"/>
      <path class="cls-1" d="M300.951,350.548c-1.37-28.62-7.16-45.84-11.54-46.22-.08,0-.17,0-.25-.01-4.34.27-10.1,16.27-11.22,46.3,7.98-.33,15.7-.32,23.01-.07h0Z"/>
      <path class="cls-1" d="M324.321,352.238c-2.73-23.71-14.06-42.43-28.39-46.9,5.05,8.35,8.09,26.08,9.01,45.37,6.96.33,13.47.87,19.38,1.53h0Z"/>
      <path class="cls-1" d="M327.861,367.828l-.41,20.37c2.63.41,5.13.84,7.5,1.28l.41-20.5c-2.26-.39-4.77-.78-7.5-1.15Z"/>
      <path class="cls-1" d="M347.161,371.508c-1.45-.43-3.77-1-6.81-1.61l-.42,20.57c2.52.53,4.85,1.06,6.95,1.57l.42-20.49c-.05-.02-.09-.02-.14-.04h0Z"/>
      <path class="cls-1" d="M313.351,366.248l-.41,20.12c3.31.32,6.49.69,9.53,1.1l.41-20.28c-2.98-.34-6.17-.67-9.53-.94Z"/>
      <path class="cls-1" d="M270.891,365.938l-.41,19.83c3.22-.23,6.38-.39,9.48-.49l.4-19.84c-3.11.11-6.27.27-9.47.5Z"/>
      <path class="cls-1" d="M298.361,365.408l-.4,19.94c3.43.13,6.77.33,9.99.58l.4-20.05c-3.2-.21-6.53-.37-9.99-.47Z"/>
      <path class="cls-1" d="M292.961,385.198l.41-19.9c-2.62-.03-5.29-.03-8,.02l-.41,19.85c2.72-.03,5.39-.02,8,.03Z"/>
    </g>
    <path class="cls-17" d="M360.781,396.018c-.14-.05-3.3-1.19-8.92-2.71l.45-22.11c1.95-.86,3.53-2.53,4.18-4.73,1.19-3.97-1.06-8.14-5.03-9.33-1.25-.37-2.72-.76-4.35-1.14-1.5-14.28-7.35-27.39-16.88-37.5-7.86-8.33-17.6-13.99-28.22-16.58l.28-22.83,1.77.02.06-5-28.92-.36-.07,5,1.91.02-.28,22.73c-11.06,2.27-21.02,7.73-28.78,15.93-9.59,10.12-15.24,23.89-16.19,39.15-1,.23-2,.45-2.99.7-4.02.99-6.48,5.06-5.49,9.08.61,2.46,2.38,4.32,4.58,5.18l-.43,21.24c-3.11.81-6.24,1.69-9.38,2.66l-1.38.42,12.7,16.42,19.65,4.53.48-7.02c.03-.9.43-3.52,1.76-3.63.03-.01.66-.02,1.2.5.6.57.92,1.64.92,3.04l-.35,7.96,14.88,5.42.21-11.99c-.04-2.24.3-6.19,1.43-7.26.19-.18.33-.2.46-.19l.08.01.12-.02c.01,0,.33-.02.72.36.61.56,1.62,2.23,1.62,7.02l-.2,14.92,14.69,9.11-.12-22.84c-.07-3.3.58-8.36,2.24-8.75.03-.01.31-.06.68.24.56.45,1.85,2.16,1.85,8.39l.6,22.64,14.55-9.47-.14-13.92c-.14-3.04.39-7.47,1.75-7.89l.1-.04c.05-.02.23-.07.47.1.36.25,1.54,1.52,1.54,7.25l.19,12.43,15.2-5.71-.19-6.9c0-.03-.32-3.45,1.54-4.14.11,0,.43.01.73.26.55.43.9,1.43,1,2.82l.45,5.71h.92l18.07-3.48,13.66-15.21-1.38-.51h0ZM327.321,321.248c8.63,9.15,14.05,20.95,15.67,33.84-4.12-.83-9.04-1.65-14.58-2.36-1.96-19.16-9.18-35.15-19.3-44.25,6.74,2.87,12.93,7.17,18.21,12.77h0ZM324.321,352.238c-5.91-.66-12.42-1.2-19.38-1.53-.92-19.29-3.96-37.02-9.01-45.37,14.33,4.47,25.66,23.19,28.39,46.9h0ZM300.951,350.548c-7.31-.25-15.03-.26-23.01.07,1.12-30.03,6.88-46.03,11.22-46.3.08.01.17.01.25.01,4.38.38,10.17,17.6,11.54,46.22h0ZM298.011,301.108c-1.07-.19-2.15-.34-3.24-.45l.27-21.66,3.25.04-.28,22.07ZM290.771,300.358h-.09c-.45-.02-.9-.05-1.35-.05h-.11c-.06.01-.12.01-.18.01-.14,0-.27-.01-.41-.01-.28,0-.57,0-.85.01l.26-21.41,3,.04-.27,21.41h0ZM284.041,278.858l-.27,21.65c-1.01.08-2.01.18-3,.32l.27-22.01,3,.04ZM282.481,305.308c-5.08,8.38-7.82,26.26-8.54,45.5-6.11.34-12.35.87-18.63,1.65,2.01-24.66,12.55-42.83,27.17-47.15ZM270.571,307.328c-10.61,8.79-17.79,25.21-19.31,45.66-5.13.73-10.28,1.62-15.41,2.69,1.82-23.39,15.22-41.47,34.72-48.35ZM349.78,400.977c-.335,1.339-1.693,2.152-3.031,1.82-13.293-3.317-60.802-13.104-114.008.234-.204.052-.409.076-.61.076-1.12,0-2.138-.758-2.423-1.893-.336-1.34.478-2.697,1.817-3.033,54.329-13.622,102.855-3.625,116.435-.236,1.339.334,2.154,1.691,1.82,3.031h0ZM232.481,391.528l.4-19.8c1.81-.45,3.63-.86,5.44-1.25l-.41,19.84c-1.8.38-3.61.78-5.43,1.21ZM242.931,389.308l.41-19.85c3.02-.57,6.03-1.08,9.03-1.52l-.41,19.85c-2.98.44-5.99.95-9.03,1.52ZM256.981,387.098l.4-19.84c2.86-.36,5.69-.67,8.5-.92l-.41,19.83c-2.79.26-5.63.57-8.49.93h0ZM270.481,385.768l.41-19.83c3.2-.23,6.36-.39,9.47-.5l-.4,19.84c-3.1.1-6.26.26-9.48.49ZM284.961,385.168l.41-19.85c2.71-.05,5.38-.05,8-.02l-.41,19.9c-2.61-.05-5.28-.06-8-.03ZM297.961,385.348l.4-19.94c3.46.1,6.79.26,9.99.47l-.4,20.05c-3.22-.25-6.56-.45-9.99-.58ZM312.941,386.368l.41-20.12c3.36.27,6.55.6,9.53.94l-.41,20.28c-3.04-.41-6.22-.78-9.53-1.1ZM327.451,388.198l.41-20.37c2.73.37,5.24.76,7.5,1.15l-.41,20.5c-2.37-.44-4.87-.87-7.5-1.28ZM339.931,390.468l.42-20.57c3.04.61,5.36,1.18,6.81,1.61.05.02.09.02.14.04l-.42,20.49c-2.1-.51-4.43-1.04-6.95-1.57h0ZM351.25,365.04c-.396,1.322-1.789,2.074-3.111,1.68-16.476-4.923-68.911-11.691-117.4.268-.201.05-.402.073-.601.073-1.123,0-2.144-.762-2.425-1.902-.331-1.34.488-2.695,1.829-3.026,49.478-12.203,103.144-5.249,120.029-.204,1.323.396,2.075,1.789,1.68,3.111h-.001Z"/>
    <path class="cls-13" d="M306.582,243.093v-10h-11.953v-11.75h-10v11.75h-12.547v10h12.547v19.458c-4.071,1.604-6.682,5.035-6.682,8.823v.5h23.25v-.5c0-3.739-2.566-7.15-6.568-8.774v-19.507h11.953Z"/>
    <path class="cls-12" d="M366.599,410.285c-12.003,14.962-3.249,28.706-.592,34.47,2.333-2.68,12.844-18.408.592-34.47Z"/>
    <path class="cls-4" d="M396.071,403.338c-1.66,3.72-3.54,7.41-5.62,11.08,5.81-5.32,13.85-10.04,25.42-10.52.31-.03.62.13.82.37.2.25.27.57.19.88-4.92,19.09-26.48,24.82-35.07,24.82-.62,0-1.17-.04-1.64-.09-1.45,1.88-2.97,3.76-4.55,5.62,5.15-2.88,12.16-4.53,22.01-1.56.29.09.53.31.64.6.12.28.09.61-.07.87-4.87,8.21-12.1,12.43-20.93,12.43-3.58,0-7.42-.69-11.48-2.1l-.11-.04c-.01,0-.02-.01-.02-.01-.05-.02-.1-.04-.14-.07-.03-.02-.06-.03-.09-.05-.04-.03-.08-.06-.12-.1-.02-.02-.04-.04-.06-.07-.04-.04-.07-.08-.09-.13-.02-.03-.04-.05-.05-.08-.01,0-.01-.01-.01-.01-.24-.52-.53-1.11-.85-1.75-3.16-6.39-9.74-19.68,1.57-33.77.19-.24.48-.36.79-.37.31,0,.6.15.78.39,6.88,9.02,6.87,18.17,4.85,25.14,1.99-2.29,3.88-4.6,5.67-6.93-3.64-7.47-10.44-22.29,1.4-37.64.19-.25.53-.38.8-.39.31,0,.6.14.79.39,6.54,8.58,7.49,16.87,6.4,23.62,2.26-3.9,4.27-7.83,6.03-11.79-.17-.18-.34-.36-.53-.55-5.35-5.48-14.32-14.67-7.64-35.82.09-.31.33-.55.64-.65.3-.1.64-.05.9.14,8.8,6.39,11.71,14.75,12.12,22.06,1.31-4.37,2.35-8.76,3.15-13.12-.07-.04-.14-.08-.21-.12-6.71-3.73-17.94-9.98-17.94-33.7,0-.32.16-.63.42-.81.26-.19.59-.24.89-.14,9.52,3.12,15.93,9.88,18.56,19.56l.09.36c.3-4.81.32-9.57.1-14.27-.19-.07-.37-.13-.57-.2-3.77-1.28-8.94-3.03-13.72-7.4-5.62-5.13-9.36-12.8-11.13-22.81-.06-.31.04-.63.26-.87.23-.23.55-.34.86-.29,12.17,1.74,19.04,9.41,22.77,16.78-.72-4.55-1.66-8.99-2.79-13.32-.4-.07-.81-.14-1.24-.21-8.04-1.37-21.5-3.67-28.65-25.48-.1-.31-.05-.64.14-.9s.49-.41.81-.41c11.27,0,18.91,5.4,23.83,11.35-.88-2.24-1.82-4.43-2.79-6.57-6.15-2.8-21.66-11.82-25.63-32.97-.06-.31.03-.63.25-.86.21-.24.53-.36.84-.32,6.67.75,13.84,4.98,19.18,11.33,5.31,6.32,8.13,13.94,7.87,21.1.89,1.93,1.75,3.91,2.57,5.93-.64-8.31.22-18.14,5.66-27.41.17-.29.46-.47.8-.49.33-.03.65.12.85.38,13.23,17.17,3.17,35.67-1.12,43.57-.19.35-.37.67-.53.97.97,3.68,1.81,7.45,2.49,11.29,1.55-7,5.11-14.67,12.43-22.67.23-.25.56-.36.89-.31.33.05.62.26.76.56,9.4,20.08-6.38,34.45-11.57,39.18-.2.18-.38.34-.54.49.21,4.18.23,8.42.05,12.7,2.81-5.96,7.87-12.27,17.63-18.59.28-.18.64-.21.95-.07s.53.43.58.76c3.3,21.97-16.64,33.22-21.14,35.45-.76,4.14-1.73,8.3-2.94,12.45,3.98-6.52,10.24-12.89,23.24-15.99.31-.08.64.01.89.22.24.21.37.52.34.84-1.9,21.48-24.94,29.93-30.39,31.11h0Z"/>
  </g>
</svg>