<svg xmlns="http://www.w3.org/2000/svg" viewBox="0 0 2505.79 2505.79"><defs><style>.cls-1,.cls-3{fill:none;stroke:#fff;stroke-miterlimit:10;}.cls-1{stroke-width:20px;}.cls-2{fill:#fff;}.cls-3{stroke-width:12px;}</style></defs><g id="Layer_2" data-name="Layer 2"><g id="Layer_1-2" data-name="Layer 1"><g id="Layer_1-2-2" data-name="Layer 1-2"><circle class="cls-1" cx="1252.89" cy="1252.89" r="1242.89"/><path class="cls-2" d="M295.52,681.72c-1.12,4.83-.94,8.42.15,10.56,2.06,3.56,6.64,9.66,16.23,20.47,17.91,19.86,55.6,63,76,84.06.41,1.6-.27,4.53-1.45,7a9.52,9.52,0,0,1-3.95,4.44c-5.56-.06-13.78-.44-20.21-.67l-21.89-.52c-7.37-.21-14.27-.43-17.93-.06,2.44,3.25,5.95,7.69,10.11,12.69L347,837.19c4.75,5.74,9.29,10.44,14.15,16.46.5,1.4-.18,4.35-1.53,7.2a10.61,10.61,0,0,1-4,4.44c-9.44-.73-30.21-1.19-47.55-1.45l-82-.64c-13.67-.15-15.17.54-19.47,6.21l-3.2,4.32c-2.63.59-6.36-1.36-6.32-3.91,3.71-6.88,7.67-14.8,12.26-24.53,4-8.39,7.27-15.92,10.3-23.34,1.48-1.19,6.61.31,6.86,2.76l-1,3.71c-1,3.7-.72,5.48.6,6.11s12.18.85,28.32,1.23l51.05,1c14.35.24,21-.11,26.69-.24-2.74-4.09-9.63-12.7-15.06-19l-4.36-5.08a22.58,22.58,0,0,0-5.78-5.06c-1.15-.54-5.78-1.09-8.05-1.22L250,805.49c-11.6-.11-13.57.59-17.75,7.49l-1.09,1.78c-2.42,1.19-6.63-1.26-6.41-3.71,4.25-8,7.95-15.38,11.89-23.78,4.59-9.73,7.81-17.07,9.77-22.2,1.65-2,6.71.59,7,2.37l-.77,3.61c-.5,2.55-1.08,5.77.25,6.4a17.65,17.65,0,0,0,6.54,1l15.86.48c4.81.16,11.12.12,15.37,0l-10.18-12-3-3.51c-5.72-6.66-10.36-11.65-11.51-12.19-1.33-.59-2.26-.13-4.46,2.56L257,760c-2,.7-6.25-1.55-6.4-3.72,3-5.35,6.41-12.13,9.38-18.43,3.5-7.44,6.64-14.59,8.6-19.72,1.67-1.08,6.42.7,7,3L274.11,727c-1.72,7.13-2.38,8.45,5.94,20.52,5.67,8.26,13,17.52,16.75,22.34,2.62,3.34,7,8.42,7.94,8.87.6.27,1.79.6,5.49.72l23.49.12c12.82,0,20.21.19,23.4.31-17.84-19.62-37.09-41.5-56.05-61.62-2.61-2.86-11-11.25-13.11-12.24-1.91-.9-4.11,1.79-6,3.92l-3.13,3.65c-2.43.72-6.25-1.55-6.4-3.72,3.26-5.94,7.14-13.67,9.83-19.38,3.15-6.67,5.56-12.29,7.7-17.83,1.78-1.26,6.05.52,6.95,2.58Z"/><path class="cls-2" d="M426.66,643c-3.08,4-3.3,4.64-.9,8.09l14.38,21.4c2.57,3.56,3.78,4.75,5.12,5.79,1,.77,3.68-.63,8.11-4.66l4.69-4.37c1.94-.11,6.05,2.51,5.59,4.83-4.83,5.59-9.45,11.61-15,18.5-4.37,5.68-6.82,9.91-12.74,17.6-2.41,1.07-5.79-1.78-6.23-4l3-4.89c2.59-4.4,3.82-8.77-.52-16.65-4.5-8-10.1-17.33-18.64-31.09l-29.09-46.57c-7.57-11.94-11.24-19.29-16.47-22.51,4.33-9.44.9-21.92,1.15-22.25,1.67-2.18,3.28-2.54,6.3-1.28C381.23,563.28,389,566,404,571l83,27.65c12.72,4.21,17.73,5.66,23.48.24l5.89-5.58c1.61-.36,5.88,2.38,5.72,4.67-6.5,7.77-13.61,16.65-20.29,25.36-6.43,8.35-11.3,15-16.85,22.95-2.42,1.06-6.19-1.3-6.11-4.16l3.28-6c2.28-4.35,1.63-5.94.63-6.69-1.19-.9-6.09-2.82-13.81-5.56l-17.84-6.54c-3.31-1.19-4.68-.14-9.18,5.71Zm5.8-25.87c3-3.84,3.09-5.06-2.28-7.07L413.3,604c-9-3.19-20.32-7.13-25-8.32,2.81,4.3,9.27,14.57,15,23l9.33,13.81c3.35,5,4.5,4.53,7.72.35Z"/><path class="cls-2" d="M586.42,539.61c-14.21,13.2-26.75,17.37-31.72,18.52-6.09-.67-18.42-9.93-28.18-20.44-.79-3,2.62-6.47,5.44-5.94,12.41,7.17,36,11.77,49.1-.42,11.43-10.62,9.36-23.38,2.19-31.11-11.62-12.51-30.25-9-43.83-5.05-16.29,4.76-37.1,6.84-51.3-8.46-16.38-17.31-14-42,8.44-62.8a85.64,85.64,0,0,1,19.9-13.85,49.91,49.91,0,0,0,6.41-3.64c4.39,2.25,13.67,9.16,23.29,19.51,1,2.57-2.77,6.31-5.59,6.06-10-5.44-27.07-10.55-38.19-.22-10.2,9.47-9.59,21.28-2.41,29,6.6,7.13,19,7.72,30.42,4.55l15.21-4.06c14.32-3.8,34.84-6.17,50.63,10.83C613.88,491.09,609.75,517.94,586.42,539.61Z"/><path class="cls-2" d="M678.67,377.23c-7.31,4.61-7.38,4.9-4.23,9.9l16.2,25.68c10.45,16.59,12.53,17.53,21.24,13.54l6.15-2.89c2.1.17,4.69,4.27,3.94,6.25-10.4,6.05-19.43,11.49-27.45,16.54-8.57,5.4-17.37,11.2-26.25,17.3-2.1-.18-4.68-4.28-3.93-6.25l3.94-3.23c7.54-6.25,7.3-8.59-3.15-25.18L623.3,362.53c-10.45-16.59-12.48-17.83-21.35-13.7L597.33,351c-2.1-.17-4.68-4.27-3.93-6.25,9-5.15,18.35-10.82,26.91-16.21,8-5.06,16.84-10.86,24.46-16.17,2.1.18,4.69,4.28,3.93,6.25l-3.4,2.9c-7,5.92-7,8.36,3.51,24.94l13,20.7c3.26,5.17,3.56,5.24,10.86.63l37.1-23.39c7.5-4.72,7.39-4.9,4.12-10.07l-13-20.69c-10.46-16.59-12.25-17.46-21.24-13.54l-5.26,2.33c-2.1-.17-4.69-4.28-3.94-6.25,10-5.83,18.89-11.16,27.46-16.55,8.73-5.51,16.82-10.86,24.81-16.39,2.1.17,4.68,4.28,3.93,6.24l-3.23,2.79c-7.42,6.42-7.47,8.7,3,25.29l41.82,66.36c10.46,16.59,12.32,17.16,21.4,13.41l4.76-2c2.1.17,4.69,4.27,3.93,6.25-9.14,5.26-18,10.59-26.2,15.76q-13.38,8.43-25.88,17.06c-2.11-.17-4.69-4.27-3.94-6.24l3.57-3c7.53-6.24,7.3-8.59-3.16-25.17l-16.19-25.7c-3.15-5-3.26-5.17-10.75-.44Z"/><path class="cls-2" d="M884.83,310.73c7.52,18.34,9.25,19.22,18.87,17.11l5.86-1.27c2,.53,3.69,5.1,2.61,6.91-10.7,3.93-20.33,7.65-29.51,11.41-9.36,3.84-19,8-29.41,12.75-2-.53-3.88-5-2.8-6.83l5.07-3.21c8.32-5.25,8.91-7.09,1.42-25.43l-29.45-71.79c-7.52-18.34-9.25-19.22-18.86-17.11l-5.86,1.27c-2-.53-3.88-5-2.8-6.83,10.7-3.93,20.53-7.73,29.9-11.58,9.16-3.75,18.84-7.95,29.21-12.66,2,.53,3.88,5,2.8,6.83l-5.06,3.21c-8.32,5.25-8.92,7.09-1.42,25.43Z"/><path class="cls-2" d="M1086.88,248.26c3,13.37,5.95,26.33,7.87,33-.89,2.78-6.14,6.34-11.08,7.46-.2,0-9.35-8.92-21.7-18.68l-60.76-48.15c-15.21-11.88-24-19-28.34-21.28-.6,2.29.21,5.79,1.93,13.4l9,39.9c3.75,16.65,8,31.91,11.55,36.95,2.83,3.91,7.88,4.28,13.42,3.9l5.94-.47c2,1.27,2.57,5.68,1.62,7.2-11.2,2.09-19.48,3.73-27.7,5.58-7.62,1.71-15.19,3.63-22.91,5.8-1.51-.95-2.89-5.18-1.61-7.19l3.35-1.41c5.35-2.27,9.11-4.64,9.79-9.33,1-6.06-1.84-21.63-5.6-38.29l-11.71-52.25c-2.55-11.29-3.5-14.56-5.35-17.16-2.43-3.13-5.87-5-13.3-4.36l-5.94.48c-1.79-1.32-2.72-6.31-.8-7.39,9.76-1.78,20.09-3.87,28.53-5.77,7-1.57,12.91-3.12,17.14-4.5,4.16,8.79,21,21.4,44.5,39.23l21.86,16.48c11.46,8.66,19,14.51,24.84,18.18.36-2.24-.43-5.74-1.26-9.44l-6.39-28.39c-3.75-16.64-8-31.9-11.56-36.95-2.82-3.9-7.66-4.32-13.41-3.89l-5.73.42c-2-1.27-2.58-5.68-1.63-7.2,11.2-2.09,19.28-3.69,27.71-5.59,7.61-1.71,15-3.56,22.9-5.79,1.51,1,2.89,5.18,1.62,7.2l-3.57,1.45c-5.16,2-8.7,4.55-9.58,9.28-1,6.06,1.64,21.68,5.39,38.34Z"/><path class="cls-2" d="M1297.63,247.52c.16,8.86.65,13.08,4.67,13.84.86.83.71,4.42-.54,5.07-3.57.7-9,1.42-14.7,3.42-7.34,2.45-25.43,5.5-37.23,5.71-14.34.24-26.59-1-41.67-6.66-24.83-9.48-42.11-32.6-42.63-62.95-.46-26.36,11-49.75,36-64.32,14.2-8,31.22-11.71,49.14-12,23.4-.41,35.07,4.45,41.83,4.33.75,6.31,1.19,21.07,3.57,33.88-.8,2.33-6.49,2.64-8,.56-7.09-19.7-20.55-29.37-40.15-29-33.53.6-49.27,28.69-48.7,62,.53,30.15,11.17,47.89,25,56.93,10.24,6.57,21.22,7.65,29,7.51,12-.21,14.51-2.57,14.27-16.27l-.24-13.28c-.19-11.39-1.48-12.63-11.62-13.93l-9.3-1.11c-2.34-1.22-2.43-6.07-.13-7.37,15,.16,25.31.19,35.67,0,10.1-.18,20.44-.6,27.6-1.12,1.71,1.24,1.78,6.09.13,7.39l-4.84.92c-6.3,1.19-7.53,3.3-7.33,14.68Z"/><path class="cls-2" d="M1423.21,162c.84-5,1-6-4-6.87l-12.9-2.18c-15.17-2.56-20.94,5-29.72,19.14-2.71.83-6.58-.25-7.38-3.17,6.79-13.61,10-26.33,12.83-34.19a5.18,5.18,0,0,1,3.09-.55,4.88,4.88,0,0,1,2.77,1.33c.44,3.71.93,4.65,16.73,7.31L1482,155.86c13.72,2.32,16.87,2.63,19.48-1.42a5.27,5.27,0,0,1,2.81-.16,4.43,4.43,0,0,1,2.88,2c-3.28,6.71-7.58,23.31-9.16,35.23-1.36,1.7-7,1.19-7.8-.67-1.29-13.91-2.55-24.17-18.14-26.81l-12.49-2.1c-5-.84-5.72-.33-6.63,5.08l-15.49,91.69c-3.26,19.34-2.29,21.21,6.85,24l8.14,2.44c1.25,1.49.44,6.28-1.23,7.28-13.44-2.7-23.77-4.66-33.15-6.24-10-1.69-20.81-3.3-35.46-5.35-1.45-1.53-.64-6.31,1.23-7.28l9.52.54c9.51.54,11.09-1.12,14.36-20.45Z"/><path class="cls-2" d="M1699,298.67c-16.53,42.89-55.19,57.59-97.49,41.29-39.54-15.25-58.25-52.31-42.4-93.41,15-39,55.74-57.83,96.86-42C1696.91,220.34,1714.42,258.74,1699,298.67ZM1650.92,213c-24.2-9.33-45.9,8.29-58.57,41.15-9.25,24-15.66,65.82,16.41,78.19,25.77,9.93,45.51-11.39,57.8-43.25,13-33.65,8.76-66.68-15.64-76.09Z"/><path class="cls-2" d="M1855.06,432.78c-7.49,11.48-14.76,22.59-18.21,28.65-2.62,1.31-8.83,0-13.08-2.74-.18-.12-.12-12.92-1.73-28.59L1814.27,353c-2-19.22-3-30.44-4.48-35.16-2,1.18-4,4.16-8.27,10.7l-22.37,34.24c-9.34,14.3-17.29,28-18.46,34-.83,4.76,2.42,8.63,6.54,12.34l4.48,3.93c.5,2.34-2.28,5.82-4,6.18-9.3-6.58-16.25-11.37-23.31-16-6.54-4.27-13.18-8.36-20.12-12.39-.37-1.78,1.71-5.69,4-6.18l3.34,1.43c5.35,2.24,9.69,3.31,13.52.52,5-3.5,14.27-16.39,23.58-30.68L1798,311.13c6.34-9.71,8-12.65,8.57-15.82.55-3.92-.54-7.65-6.14-12.57l-4.49-3.93c-.3-2.23,2.64-6.35,4.76-5.72,8.07,5.77,16.78,11.71,24,16.44,6,3.92,11.23,7.09,15.17,9.16-3.42,9.1-.72,30,2.83,59.28l3.41,27.16c1.78,14.27,2.85,23.78,4.26,30.49,1.86-1.3,3.82-4.31,5.9-7.48l15.91-24.37c9.34-14.27,17.29-28,18.46-34,.83-4.76-2.24-8.52-6.54-12.35l-4.31-3.82c-.49-2.33,2.29-5.81,4-6.17,9.3,6.58,16.05,11.25,23.3,16,6.54,4.27,13,8.25,20.12,12.4.37,1.75-1.7,5.69-4,6.18l-3.53-1.55c-5-2.29-9.32-3.07-13.34-.4-5.05,3.5-14.41,16.27-23.77,30.57Z"/><path class="cls-2" d="M2017.37,481.39c14.86-13.39,17.59-16.39,11.89-24.3l-2.38-3.26c-.59-2.27,3.93-6.36,5.77-4.63,12.63,12.49,24.26,24.13,39.24,40.75,11.56,12.85,21.87,26.83,27.69,41.17,11.1,27.16,2.76,55.09-16.83,72.72-21,18.9-47,24.09-72.11,14.11-14.92-5.86-28.54-16.88-43.05-33-6.63-7.37-12.74-16-17.84-21.7-6.76-7.52-14.12-15.37-22.47-24-.18-2.1,3.57-5.49,5.49-4.94l5.15,4.16c7.45,6.07,9.55,5.88,24-7.09Zm-29.52,67.17c-8.62,7.73-14,13.15-14.74,18.93-.59,5.64,2.09,11.46,7.17,17.1,24.37,27.12,56.86,14.65,78.17-4.53,28.21-25.38,31.59-55.37,6.07-83.74-3.81-4.23-7.28-6.53-9.38-6.31s-5.22,2.71-10.1,7.08Z"/><path class="cls-2" d="M2076.49,697.72a17.11,17.11,0,0,1,24,4.85c5.49,8.5,2.18,18.92-5.44,23.84-8.14,5.27-18.12,3.42-23.61-5.08A17.12,17.12,0,0,1,2076.49,697.72Z"/><path class="cls-2" d="M2294.32,848.45a282.45,282.45,0,0,0-28.94,15.85c-2.65.27-5.76-4.57-4.64-6.7,15.53-13.25,19.58-29.89,11.16-48.53-9.63-21.33-38.22-36-76.46-18.68S2146.63,839,2157,862.11c10.5,23.25,32.1,26.46,47.49,25.74,2.23.85,3.74,5.72,2,7.91-14.83,5.08-27.84,7-33.47,6.32-7.57-9.07-18-20.8-24.73-35.79-8.51-18.83-12.77-40-8.74-58.26,4.31-18.6,15.49-36.38,39.32-47.14,23.44-10.59,44.48-8.06,61.42.25,17.5,8.52,32.1,25.52,41.14,45.5C2290.28,826.21,2292.1,842.52,2294.32,848.45Z"/><path class="cls-2" d="M2202.12,963.54a17.12,17.12,0,0,1,21.47,11.71c2.74,9.74-3.5,18.72-12.22,21.18-9.34,2.63-18.33-2.08-21.07-11.82A17.18,17.18,0,0,1,2202.12,963.54Z"/><path class="cls-2" d="M301.45,1506.52c3.73-.93,4.51-1.12,3.57-4.86l-2.38-9.64c-2.84-11.36-9.88-13.08-22.4-14.91-1.4-1.63-1.83-4.66,0-6.1,11.55.59,21.4-1,27.73-1.47a3.87,3.87,0,0,1,1.25,4.31c-2.45,1.44-3,2.07,0,13.89l14.44,57.88c2.56,10.26,3.3,12.56,6.92,13.14a4.1,4.1,0,0,1,1,1.91,3.4,3.4,0,0,1-.51,2.61c-5.68-.24-18.55,1.82-27.35,4.34-1.59-.43-3-4.55-1.9-5.63,9.29-5.13,16.05-9.14,13.15-20.81l-2.33-9.33c-.93-3.73-1.51-4.09-5.56-3.07L238.4,1545.9c-14.47,3.61-15.45,4.85-14.66,12.09l.77,6.42c-.66,1.32-4.24,2.21-5.44,1.35-2.2-10.21-4-18-5.77-25-1.86-7.47-4-15.52-7.07-26.33.63-1.48,4.2-2.38,5.45-1.36l2.52,6.8c2.53,6.81,4.16,7.39,18.63,3.79Z"/><path class="cls-2" d="M305.68,1661.19c-2.55-6-2.77-6.14-6.9-4.38l-21.28,9c-13.74,5.81-14.7,7.26-12.77,14.27l1.41,5c-.39,1.55-3.79,3-5.17,2.18-3.27-8.54-6.24-16-9.05-22.64-3-7.08-6.27-14.41-9.75-21.81.39-1.56,3.79-3,5.17-2.19l1.95,3.36c3.75,6.42,5.54,6.54,19.28.72l54.94-23.22c13.74-5.81,14.9-7.18,12.92-14.34l-1.06-3.73c.38-1.56,3.78-3,5.17-2.19,2.76,7.36,5.86,15.1,8.86,22.19,2.81,6.65,6.08,14,9.12,20.35-.39,1.55-3.78,3-5.17,2.18l-1.78-2.91c-3.57-6-5.43-6.24-19.16-.43l-17.13,7.24c-4.28,1.78-4.37,2-1.79,8.08l13,30.72c2.62,6.2,2.77,6.14,7,4.32l17.14-7.24c13.73-5.8,14.6-7,12.76-14.26l-1.09-4.24c.38-1.56,3.78-3,5.16-2.18,3.15,8.24,6.05,15.54,9.06,22.63s6.07,14,9.24,20.64c-.39,1.55-3.78,3-5.17,2.18l-1.69-2.76c-3.91-6.36-5.61-6.68-19.34-.87l-55,23.22c-13.73,5.81-14.39,7.13-12.7,14.43l.91,3.79c-.39,1.56-3.79,3-5.17,2.19-2.83-7.51-5.74-14.81-8.62-21.6q-4.67-11.08-9.61-21.53c.38-1.56,3.78-3,5.16-2.19l1.82,3.07c3.76,6.42,5.55,6.53,19.28.72l21.27-9c4.13-1.75,4.28-1.78,1.66-8Z"/><path class="cls-2" d="M390.22,1800.23c-3.83,2.35-4,2.65-1.75,6.34l5.78,9.43c4.37,7.13,6.33,8.15,13.73,5.5l3.86-1.42c1.68.28,3.78,3.7,3,5.13-4.54,2.41-9.54,5.3-14.74,8.48s-10,6.35-14.23,9.31c-1.65.07-3.88-3.26-3.24-5l3-2.78c5.72-5.4,5.81-7.73,1.45-14.81l-5.79-9.44c-2.27-3.68-2.49-3.73-6.58-1.22l-16.27,10c-6.28,3.86-10.32,7.09-11.63,10.16-1.38,3.29-.87,6.54,5.25,16.53,7.29,11.89,10.56,16.28,30.61,14.32,2.18.17,3.73,3.92,2.42,5.48-7.44,3.81-20.52,7.33-25.39,7.68-4.16-7.41-12.08-20.62-19-31.82l-10.91-17.77c-4-6.54-8.27-13.17-14.86-23.25.15-1.6,3.43-3.61,4.76-2.94l4.9,5.84c4.75,5.56,6.05,5.88,18.62-1.84l51-31.29c12.44-7.63,12.75-9,10.21-15.86l-1.41-3.83c.06-1.74,3.29-3.53,5-2.67,3.67,6.59,7.64,13.37,11.67,19.93l17.82,29c5.35,8.74,10.29,16.45,11.65,18.06C447,1817,437.7,1824,429,1830.25c-1.83.38-4-2.6-3.65-4.72,3.86-4.44,6.79-8.87,7.61-11.82,1-4.19.13-9.3-4-16l-6.71-10.92c-2.77-4.51-3-4.34-8.1-1.24Z"/><path class="cls-2" d="M509.25,1977.3c-26.75,22.48-57.91,18.06-80.08-8.32-20.73-24.68-19.57-56.22,6.09-77.77,24.31-20.42,58.36-18,79.91,7.64S534.18,1956.36,509.25,1977.3Zm-.55-74.71c-12.68-15.1-33.61-11.35-54.1,5.87-15,12.58-34.61,38-17.8,58.09,13.5,16.09,34.47,9.14,54.37-7.56C512.15,1941.34,521.48,1917.81,508.7,1902.59Z"/><path class="cls-2" d="M555.7,2057.91c-5,5.64-7.92,9.9-8.06,13.2s1.06,6.3,9.82,14.06c10.92,9.69,14.6,12.3,34,4.66,2-.35,4.36,2.58,3.92,4.75-6.13,5.71-17.83,13.12-22.39,14.86-6.14-5.88-17.56-16.21-27.4-24.93l-16.05-14.26c-5.52-4.9-11.62-10.11-19.27-16.45-.44-1.67,1.78-4.64,3.36-4.51l5.09,3.44c6,4.06,7.61,3.74,17.5-7.42l39.57-44.64c9.89-11.15,10.1-12.87,5.35-18.38l-3.06-3.56c-.56-1.79,1.88-4.55,4-4q9,8.65,17.67,16.31c5.76,5.11,11.89,10.31,18.08,15.38.32,1.58-2.12,4.34-3.72,4.21l-3.57-2.29c-6.14-3.94-7.72-3.62-17.6,7.53Z"/><path class="cls-2" d="M744.91,2163.92c-19.1,29.27-50.18,34.08-79.06,15.25-27-17.61-35.07-48.15-16.74-76.2,17.35-26.59,50.63-34.17,78.7-15.87S762.69,2136.65,744.91,2163.92Zm-22.2-71.33c-16.52-10.78-35.46-1.12-50.09,21.31-10.7,16.39-22.08,46.48-.19,60.76,17.59,11.47,35.66-1.25,49.85-23,15-23,17.1-48.22.46-59.08Z"/><path class="cls-2" d="M869.25,2262.05c-2.73,6.15-3.74,9.21-1.19,11,.33.84-.92,3.27-2,3.32a73.86,73.86,0,0,0-11.24-2.38c-5.85-.66-19.29-4.35-27.5-8-10-4.42-18-9.22-26.6-17.94-14.09-14.5-18.59-36-9.22-57.07,8.13-18.32,23.49-30.8,45.44-32.81,12.37-1,25.28,1.92,37.74,7.45,16.27,7.22,22.77,14.31,27.45,16.4-1.51,4.59-5.94,14.92-8.41,24.5-1.3,1.36-5.35-.25-5.7-2.17,1.42-15.86-4.76-26.85-18.38-32.9-23.31-10.34-43.18,4-53.46,27.15-9.3,21-7.65,36.61-1,47.28,4.95,7.81,12.18,12.08,17.6,14.48,8.36,3.71,10.83,2.88,15.06-6.64l4.1-9.24c3.51-7.91,3-9.18-3.57-13.33l-6.06-3.74c-1.22-1.6.28-5,2.28-5.13,10.27,4.91,17.39,8.24,24.57,11.43s14.26,6.16,19.39,8.08c.79,1.41-.71,4.76-2.27,5.13l-3.63-.91c-4.72-1.22-6.25-.14-9.77,7.77Z"/><path class="cls-2" d="M963.37,2287.21c-4.31,14.43-3.71,15.79,3,19.13l4.08,2c1,1.29-.26,4.76-1.79,5.35-8.2-2.79-15.68-5.19-22.9-7.35-7.38-2.2-15.11-4.34-23.49-6.5-1-1.29.1-4.83,1.6-5.38l4.53.51c7.44.88,8.68.09,13-14.36l16.88-56.54c4.31-14.44,3.71-15.8-3-19.13l-4.07-2.06c-1-1.29.1-4.82,1.6-5.35,8.21,2.78,15.85,5.23,23.22,7.43s15,4.3,23.34,6.48c1,1.28-.11,4.82-1.61,5.35l-4.53-.52c-7.44-.88-8.68-.08-13,14.36Z"/><path class="cls-2" d="M1138.62,2241.34a213.46,213.46,0,0,0-2.25,25c-.95,1.78-5.35,1.71-6.19.1-1.79-15.46-10.59-25-25.93-27.62-17.55-3-38.9,8.92-44.18,40.38s10,51.45,29,54.64c19.13,3.22,30.31-9,36.37-19.09,1.48-1,5.2.06,5.83,2.12-3.08,11.51-7.36,20.55-10.19,23.81-8.91.94-20.74,2.53-33.08.46-15.49-2.6-30.69-8.92-40.52-19.17-9.92-10.61-16.41-25.19-13.11-44.8,3.24-19.29,13.75-31.51,26.15-38.69,12.8-7.45,29.72-9.48,46.17-6.72C1122.87,2234.47,1133.93,2240.23,1138.62,2241.34Z"/><path class="cls-2" d="M1210.22,2314.06c-3.85-.09-4.33.06-5.35,3.08l-6.7,18.42a18.6,18.6,0,0,0-1.26,5.75c0,1,2,2,6.5,2.88l4.79.92c.94,1.14,1.19,4.84-.45,5.6-5.6-.46-11.37-.59-18.1-.92-5.45-.13-9.15.26-16.52.08-1.75-1-1.51-4.36-.35-5.62l4.34-.38c3.86-.38,7.09-1.59,10-7.77,2.88-6.35,6.11-14,10.7-25.41l15.53-38.76c3.93-10,6.8-15.55,6.43-20.21,7.73-1.58,13.86-9.29,14.18-9.29,2.08.06,3,.88,3.6,3.3,1.19,4.68,3,10.66,6.69,22.13l20.28,63.37c3.14,9.7,4.49,13.42,10.4,14.53l6.06,1.1c1,.83,1.19,4.69-.29,5.62-7.69-.52-16.34-.88-24.68-1.09-8-.19-14.26-.18-21.65,0-1.74-1-2-4.37-.18-5.62l5.15-.67c3.7-.56,4.37-1.66,4.39-2.62,0-1.13-1-5-2.78-11l-4-13.84c-.74-2.58-2-2.93-7.63-3.06Zm18.48-8.06c3.69.09,4.5-.37,3.32-4.57l-3.85-13.08c-2.08-6.95-4.76-15.67-6.12-19.07-1.37,3.65-4.76,12.23-7.37,19.55l-4.3,11.92c-1.55,4.3-.75,4.8,3.25,4.9Z"/><path class="cls-2" d="M1362.09,2318.81c.82,7.5,2,12.53,4.36,14.86,2.38,2.49,5.38,3.45,17,2.18,14.51-1.59,18.92-2.55,26.3-22.07,1.1-1.73,4.84-1.49,6.17.29.1,8.38-2.27,22-4,26.58-8.48.59-23.78,2.11-36.86,3.56l-21.36,2.34c-7.33.8-15.28,1.83-25.13,3.23-1.54-.81-2.26-4.43-1.08-5.53l5.94-1.46c7.07-1.74,7.88-3.12,6.27-17.94l-6.48-59.3c-1.62-14.82-2.74-16.15-10-16.32l-4.69-.13c-1.7-.79-2.1-4.46-.3-5.62q12.49-.87,24-2.14c7.65-.83,15.6-1.86,23.54-3.05,1.38.82,1.78,4.48.59,5.58l-4.07,1.09c-7.06,1.9-7.87,3.28-6.25,18.1Z"/><path class="cls-2" d="M1578.61,2303.36c-14,4.53-24,3.36-27.81,2.56-4-2.42-9.51-12.77-12.85-23.18.43-2.32,3.89-3.61,5.64-2.32,6.26,8.91,21,19.67,34,15.49,11.3-3.64,14-13.07,11.51-20.72-4-12.37-17.94-16-28.57-17.58-12.77-2-27.78-7.22-32.64-22.33-5.72-17.19,3.87-33.42,26-40.56a64.69,64.69,0,0,1,18.19-3.17,40.11,40.11,0,0,0,5.58-.45c2.3,3,6.48,10.7,9.78,20.94-.17,2.07-3.94,3.46-5.8,2.38-5.11-7-15.26-16-26.25-12.43-10.07,3.25-13.45,11.58-11,19.21,2.26,7,10.59,11.41,19.5,12.92l11.79,2.09c11.09,2,26,6.95,31.41,23.74C1613.13,2278.74,1601.66,2295.91,1578.61,2303.36Z"/><path class="cls-2" d="M1674.75,2194.63c1.91,4.07,2.2,4.29,6.11,2.45l10-4.7c7.54-3.57,8.81-5.35,7-13l-1-4c.47-1.65,4.1-3.35,5.43-2.38,1.89,4.75,4.2,10.1,6.79,15.59s5.19,10.7,7.66,15.18c-.11,1.65-3.67,3.5-5.3,2.67l-2.43-3.29c-4.72-6.29-7-6.63-14.56-3.09l-10,4.7c-3.92,1.84-4,2.06-2,6.41l8.11,17.28c3.13,6.67,5.9,11,8.8,12.69,3.11,1.73,6.41,1.6,17-3.38,12.63-5.94,17.36-8.68,17.64-28.83.41-2.14,4.31-3.26,5.71-1.78,3,7.82,5,21.21,4.81,26.09-7.83,3.32-21.83,9.71-33.74,15.3l-18.87,8.86c-7,3.27-14,6.76-24.76,12.15-1.57-.32-3.21-3.81-2.38-5.07l6.35-4.22c6-4.09,6.54-5.35.25-18.72L1646,2187.41c-6.2-13.21-7.48-13.68-14.62-11.89l-4,1c-1.71-.26-3.13-3.66-2.09-5.22,7-2.91,14.14-6.11,21.1-9.38l30.78-14.44c9.29-4.36,17.49-8.39,19.25-9.57,1.23,2.26,7.13,12.23,12.44,21.62.17,1.86-3,3.72-5.1,3.09-4-4.32-8-7.72-10.89-8.87-4.06-1.46-9.23-1.16-16.34,2.18l-11.61,5.45c-4.79,2.25-4.66,2.53-2.14,7.91Z"/><path class="cls-2" d="M1742.52,2120.75c-1.78-.34-4-3.52-2.76-4.91,4.68-2.8,10.48-6.54,17-11,4.37-3,8.22-5.58,12.72-9.23,5.59,8.22,15.73,13.15,30,21.64L1821,2130c3,1.84,13.45,6.95,17.56,9-.44-4.36-1.11-9.91-2.86-20.16l-3.15-19.19c-2.93-18-4.39-27.27-9.23-40.65a147.3,147.3,0,0,0,13.4-8.53c4.38-3,10.39-7.26,15-10.77,2-.2,3.72,2.32,3.57,4.37l-3.39,3.27c-4.81,4.63-6.38,8-1.6,15.05,18.58,27.32,28.58,41.45,40.74,57.62,4.42,5.95,7.13,8.74,12.73,5.89l4.6-2.38c1.79.34,3.86,3.39,2.89,4.82-6.27,3.88-12.06,7.63-18.56,12-6,4.06-13.17,9.16-19.36,13.75-2,.42-4.25-2.54-3.56-4.37l3.62-3.24c5.56-4.94,4.47-6.53-1-14.62l-23.7-34.25-10.28-15.12-.27.19c4.62,27.88,9.07,57.24,15.57,85.6a5.18,5.18,0,0,1-2,2.73,8.29,8.29,0,0,1-4,1.55c-16.36-12.93-55-34.71-74.18-46.9l-.27.18c5.35,9,9.17,14.9,13.73,21.89,5.73,8.71,14.61,22.06,20,30,4.51,6.63,6.57,8,12.41,5.14l5.72-2.73c1.69.21,3.5,3.44,2.89,4.83-5.09,3.06-10.88,6.81-15.92,10.24-4.24,2.88-9.19,6.44-14.31,10.32-2.08.64-4.43-2.81-3.69-4.28l2.12-2c5.94-5.8,6.2-7.14,1.41-15.9-3.76-6.94-11.21-18.75-19-31.89-5.51-9.24-12.55-20.16-17.42-27.35-5.14-7.56-9.41-7.56-15.34-4.88Z"/><path class="cls-2" d="M1965.67,2048.1c10.1,11.16,11.59,11.35,17.92,7.34l3.86-2.43c1.6-.15,4,2.69,3.65,4.27-6.62,5.58-12.55,10.74-18.13,15.8s-11.52,10.7-17.72,16.74c-1.6.15-4.08-2.58-3.77-4.16l2.78-3.61c4.6-5.91,4.56-7.39-5.57-18.54l-39.66-43.7c-10.13-11.16-11.59-11.34-17.92-7.34l-3.86,2.43c-1.6.15-4.07-2.59-3.78-4.16,6.63-5.58,12.68-10.86,18.38-16s11.4-10.57,17.6-16.65c1.6-.15,4.08,2.59,3.77,4.16l-2.78,3.62c-4.6,5.91-4.56,7.38,5.57,18.54Z"/><path class="cls-2" d="M2076.28,1923.47c7.93,6.77,15.61,13.34,19.84,16.53.73,2.1-.84,6.66-3.34,9.59-.11.12-9.76-1.19-21.73-1.48l-58.92-1.63c-14.7-.32-23.26-.67-27,0,.7,1.65,2.77,3.43,7.28,7.28l23.65,20.21c9.88,8.43,19.44,15.76,23.88,17.24,3.49,1.09,6.74-1,9.94-3.74l3.4-3c1.79-.15,4.16,2.29,4.27,3.64-5.87,6.37-10.16,11.15-14.32,16.05-3.86,4.51-7.58,9.12-11.29,14-1.36.11-4.13-1.83-4.27-3.64l1.4-2.38c2.21-3.81,3.44-7,1.71-10.15-2.15-4.16-11-12.32-20.86-20.76l-31-26.45c-6.71-5.73-8.76-7.27-11.09-8-2.91-.79-5.83-.34-10.11,3.41l-3.4,3c-1.7,0-4.53-2.6-3.85-4.13,5.14-5.52,10.47-11.51,14.74-16.51,3.56-4.16,6.43-7.78,8.38-10.55,6.54,3.46,22.59,3.45,45,3.62l20.8.07c10.93.05,18.21.16,23.41-.25-.8-1.52-2.87-3.3-5.07-5.17L2041,1905.82c-9.87-8.44-19.44-15.76-23.87-17.24-3.5-1.09-6.64.87-9.94,3.74l-3.31,2.88c-1.78.14-4.16-2.29-4.26-3.65,5.87-6.37,10.05-11,14.32-16,3.85-4.51,7.48-9,11.3-14,1.35-.11,4.12,1.83,4.26,3.65l-1.51,2.5c-2.22,3.57-3.22,6.74-1.6,10,2.14,4.16,10.87,12.48,20.75,20.89Z"/><path class="cls-2" d="M2121.92,1842.82c-2,3.26-2.16,3.76-.09,6.19l12.44,15.17a18.67,18.67,0,0,0,4.3,4c.82.51,2.74-.75,5.8-4.13l3.23-3.65c1.46-.22,4.76,1.47,4.59,3.25-3.25,4.59-6.32,9.48-10,15.1-2.89,4.62-4.44,8-8.36,14.27-1.75,1-4.52-.94-5-2.58l1.89-3.92c1.64-3.52,2.25-6.91-1.6-12.55s-8.92-12.38-16.38-22.18l-25.41-33.13c-6.6-8.49-9.91-13.78-14.11-15.84,2.59-7.46-.91-16.65-.75-16.93,1.12-1.79,2.3-2.16,4.68-1.42,4.63,1.38,10.67,2.9,22.45,5.54l64.85,14.86c9.94,2.26,13.83,3,17.79-1.52l4.05-4.66c1.19-.39,4.62,1.38,4.67,3.12-4.36,6.34-9.09,13.6-13.51,20.66-4.26,6.8-7.45,12.18-11.09,18.6-1.75,1-4.76-.52-4.93-2.7l2.05-4.76c1.41-3.46.8-4.6,0-5.11-1-.6-4.81-1.69-10.86-3.21l-14-3.65c-2.6-.68-3.57.23-6.54,5Zm2.5-20c2-3.13,2-4.06-2.23-5.19l-13.22-3.36c-7-1.79-15.91-3.91-19.53-4.47,2.44,3,8.08,10.35,13.08,16.31l8.07,9.78c2.9,3.52,3.73,3.09,5.86-.3Z"/><path class="cls-2" d="M2145.57,1713.59c-14.65-6.51-16.39-6.93-20-1.19l-2.35,3.7c-1.38,1.14-5-.49-5-2.57,4.17-11.3,8.65-23,14.83-36.93,5.53-12.48,12.19-22.3,18-26.37,8.76-6.29,18-7.43,27.42-3.26,13,5.79,14.7,17.06,15.07,25.3.08,1.78,1,2.18,2.9,2.16,23.93-.94,37.59-2.07,46.73-6.44a19.6,19.6,0,0,0,8.46-8c1.32-1,3.52,0,4.07,1.11,0,2.8-1.78,7.61-3.83,12.16-6,13.48-14.6,19.83-28,21.59a200.12,200.12,0,0,1-27.79,1.34c-4.76,0-7,1.82-8.58,5.49-2.28,5.13-2.12,5.55.81,6.85l18,8c13.48,6,14.89,5.57,19-.51l2.49-3.63c1.19-.7,4.71.86,5.13,2.28-3.74,7.64-6.88,14.31-10,21.34-3.26,7.33-6,13.84-9.06,21.59-1.41.79-4.92-.78-5.13-2.27l1-4.29c1.78-7.13,1.12-8.45-12.36-14.44Zm27.53-11.8c5.13,2.27,5.77,2,9.61-6.61,2.34-5.28,2.38-8.92.84-13-1.38-3.6-4.83-8.47-13.48-12.31-13.18-5.86-25.13-1.87-30.21,9.56-2.67,6-2.38,6.49,4.67,9.62Z"/><path class="cls-2" d="M2262.73,1563.11c14.31,4.2,15.81,3.64,18.77-3l2.57-5.95c1.25-.81,4.76.23,5.39,1.58-3.25,9.91-5.61,17.41-7.78,24.79s-4.28,15.12-6.63,24.29c-1.29,1-4.83-.08-5.39-1.58l.77-5.46c1-7.24.15-8.47-14.16-12.68l-7.69-2.26c-7.69-2.26-10.2-2.83-19.53-1.22l-43.23,7.23c-7.21,1.22-10.1,1.88-12.58,7l-2.46,5c-1.64,1-5.28-.22-5.2-2.2,2.34-6.83,4.16-12.48,6.83-21.56,2.76-9.38,4.91-17.28,6.13-22.58,1-1.19,4.66-.47,5.48,1.27l-.31,5.59c-.19,3,.15,4.06.31,4.1,1.23.36,3.76.27,11.94-.84l18.59-2.37c5.75-.82,13.87-2.29,18.25-3-6.22-6.67-14.82-14.38-21.49-20.68-9.31-8.75-13.38-12-15.22-12.49-.93-.27-2.57,1.92-4.27,5.43l-1.47,2.75c-1.14,1-5,0-5.35-1.74,2.11-6.06,3.9-11.55,5.52-17.09,1.72-5.85,3-10.66,4-15.22,1.16-1.66,4.86-.59,5.57,1l-.41,4.22c-.35,2.91-.3,6.76,1.35,9.09,2.25,3.17,6.7,8.49,17.91,19.8l14.7,14.86c6.06,6.13,9.59,8.32,18.36,10.91Z"/><polyline class="cls-2" points="1298.54 843.49 1337.05 1919.38 1171.36 1920.72 1209.87 843.49 1252.87 709.72"/><path class="cls-2" d="M792,1044.78h16.33L964.13,1396q11.58,26.41,23,36.07t29.83,9.64h3.57v11.58H854V1441.1q25.54-.6,34.59-6.09t9-19.45a54.27,54.27,0,0,0-.89-10.1,36.58,36.58,0,0,0-2.67-8.61l-32.66-76H695.17l-27.9,64.42q-5.35,12.76-7.57,19.89a40.69,40.69,0,0,0-2.23,11.57q0,12.49,9.8,18.43t30.58,5.95h5.94v12.17H572.57V1441.7q19.62-.3,31.91-11.13t26.27-41.12ZM703.78,1298.3h149L781,1131.76Z"/><path class="cls-2" d="M1831,1398.62q30.57,0,41.11-10.84t12.62-41.41h14v106.87H1733.29V1343.72q47.2-9.21,74.66-46.46t27.46-92.18q0-63.82-35.62-102.12t-95.89-38.29q-60,0-95.59,38.15t-35.62,102.24q0,55.23,27.16,92.18t75,46.46v109.54H1509.47V1346.39h14q1.79,30.28,12.32,41.26t41.11,11h74.79v-35.92q-71.85-13.08-111.33-54.33t-39.48-103.31q0-73,55.81-117.55T1703.92,1043q91.72,0,147.39,44.53T1907,1205.08q0,61.76-39.48,103.16t-111,54.48v35.9Z"/><path class="cls-2" d="M1249.93,653.78c-33-24.57-69.38-34.06-110-26.69,0-.73-.12-1.39-.12-2.06q0-67.38,0-134.74c0-1.85.69-2.33,2.29-2.63a132,132,0,0,1,82.36,10.89,124.52,124.52,0,0,1,24.14,14.94,3.35,3.35,0,0,1,1.42,2.93q0,67.46,0,134.94Z"/><path class="cls-2" d="M1254.56,653.78v-2q0-67.72,0-135.44a3.34,3.34,0,0,1,1.54-2.87,133,133,0,0,1,52.09-24.73,131.42,131.42,0,0,1,54.26-1.05c1.72.32,2.33.89,2.33,2.78q-.09,67.17,0,134.39c0,.74-.07,1.47-.11,2.27C1324,619.71,1287.59,629.19,1254.56,653.78Z"/><path class="cls-2" d="M1369.32,632.86V508.74a35.79,35.79,0,0,1,4.23,1.68c.42.22.65,1.14.65,1.74q.06,12.84,0,25.69,0,36.51-.06,73,0,18.78,0,37.56V651c-32.5-12.2-65.27-15.18-98.8-5,4.65-4.59,29.91-13.37,45.53-15.66A127.51,127.51,0,0,1,1369.32,632.86Z"/><path class="cls-2" d="M1135.17,632.84c33.16-7.78,64.36-3.18,93.92,13-33.42-10-66.16-7-98.76,5.19v-2.73q0-41-.07-82,0-26.64-.08-53.29c0-1.89.5-2.91,2.32-3.33a25.17,25.17,0,0,0,2.65-.92Z"/><path class="cls-2" d="M694.36,1860.92c-7.82-7.44-10.62-14.2-11.46-16.89.11-3.35,4.66-10.34,10-16a3,3,0,0,1,3.47,2.83c-3.41,7-4.94,20,2.28,26.86,6.29,6,13.18,4.54,17.11.42,6.36-6.68,3.67-16.79.93-24.12-3.29-8.79-5.3-20.13,2.48-28.3,8.78-9.39,22.39-8.7,34.71,3a49.07,49.07,0,0,1,8.43,10.55,28.77,28.77,0,0,0,2.26,3.41c-1,2.46-4.44,7.72-9.7,13.25-1.37.59-3.57-1.36-3.57-2.91,2.57-5.58,4.64-15.08-1.48-20.91-5.6-5.35-12-4.71-16-.59-3.62,3.79-3.43,10.57-1.19,16.76l2.86,8.23c2.67,7.73,4.83,18.91-3.81,28C722.05,1874.72,707.19,1873.14,694.36,1860.92Z"/><path class="cls-2" d="M771.54,1849.74c6.47-8.39,6.32-9.36,2.77-13.39l-2-2.25c-.33-1.11,1.11-3.16,2.55-2.91,4.32,3.62,8.92,7.28,13.36,10.7s9.18,6.92,13.78,10.18c.33,1.11-1.19,3.1-2.38,3.07l-2.5-1.37c-4.76-2.5-5.85-2.2-12.32,6.19l-16.05,20.8c-8.13,10.55-15.89,23.12-1.78,34,11.88,9.17,23.3,1.86,32.83-10.5l8.41-10.91c5.63-7.3,10.54-14.45,11.32-17.58.6-2.54-1-4.65-3.16-7l-2.16-2.38a3.3,3.3,0,0,1,2.37-3.06c4.88,4,8.44,6.93,12.25,9.86,3.44,2.66,6.95,5.22,10.62,7.73a3.34,3.34,0,0,1-2.38,3.07l-2-.93c-2.83-1.32-5-2.14-7.31-.89-2.83,1.56-8.48,8.12-14.11,15.43l-7.79,10.1c-6.53,8.48-13.35,15.59-22.7,17.15-7.35,1.09-15.88-1.89-23.4-7.69-7.07-5.44-12.56-11.4-14.52-19.23-1.84-7.6,1.26-15.85,8.84-25.69Z"/><path class="cls-2" d="M841.45,1887.63c-.37-1.26,1-3.63,2.28-3.28,3.35,2.18,7.67,4.79,12.66,7.65,3.36,1.93,6.31,3.63,10.14,5.44-3.51,6.12-3.41,14.19-4.26,26L861,1941.26c-.22,2.5-.13,10.82-.12,14.11,2.69-1.61,6.07-3.74,12.16-8l11.43-7.89c10.7-7.37,16.27-11.14,23.38-18.35a112.76,112.76,0,0,0,9.9,6.09c3.36,1.92,8.1,4.51,11.89,6.42.78,1.23-.29,3.11-1.68,3.63l-3.23-1.19c-4.57-1.7-7.28-1.69-10.29,3.57-11.68,20.34-17.6,31.12-24.13,43.91-2.4,4.66-3.35,7.27.33,10l3,2.26c.36,1.26-.94,3.53-2.18,3.34-4.58-2.89-8.89-5.5-13.88-8.36-4.58-2.63-10.23-5.74-15.23-8.35-.94-1.19.26-3.52,1.68-3.63l3.27,1.36c5,2.09,5.71.91,9.16-5.12L891,1949.33l6.46-11.26-.2-.11c-16.61,11.47-34.21,23.29-50.53,36.12a3.81,3.81,0,0,1-2.43-.47,6.33,6.33,0,0,1-2.31-2.11c3.06-14.52,4.6-46.2,6.27-62.31l-.2-.12c-4.09,6.19-6.69,10.47-9.74,15.55-3.79,6.36-9.55,16.17-13,22.1-2.84,4.94-3,6.67.71,9.6l3.63,2.87c.41,1.16-1.09,3.31-2.19,3.34-3.65-2.37-8-5-11.84-7.19-3.26-1.87-7.18-4-11.36-6.13-1.1-1.15.37-3.72,1.57-3.69l2,.76c5.7,2.09,6.65,1.84,10.77-3.93,3.28-4.55,8.52-13,14.52-22,4.2-6.38,9-14.27,12.06-19.62,3.23-5.63,1.84-8.4-1.84-11.42Z"/><path class="cls-2" d="M934.29,1940.22c-.54-1.18.46-3.73,1.79-3.56,3.63,1.66,8.28,3.61,13.64,5.7,3.61,1.42,6.77,2.66,10.83,3.87-2.57,6.58-1.28,14.54-.37,26.39l1.36,17.78c.15,2.5,1.47,10.72,2,14,2.42-2,5.45-4.59,10.86-9.69l10.1-9.48c9.51-8.87,14.45-13.42,20.43-21.6a106,106,0,0,0,10.7,4.55c3.61,1.42,8.68,3.28,12.69,4.6,1,1.11.17,3.12-1.12,3.84l-3.38-.71c-4.76-1-7.46-.6-9.65,5-8.55,21.84-12.82,33.38-17.39,47-1.69,5-2.25,7.68,1.79,9.88l3.33,1.79c.54,1.19-.41,3.63-1.67,3.62-4.94-2.18-9.6-4.12-15-6.21-4.92-1.93-11-4.17-16.3-6-1.1-1-.26-3.53,1.12-3.84l3.45.86c5.27,1.33,5.77.06,8.32-6.41l10.57-27.65,4.75-12.09-.22-.08c-14.72,13.79-30.39,28.08-44.61,43.18a3.77,3.77,0,0,1-2.48-.12,6.29,6.29,0,0,1-2.6-1.74c.89-14.82-2.26-46.37-3-62.56l-.22-.08c-3.13,6.72-5.06,11.34-7.33,16.82-2.81,6.84-7.06,17.4-9.56,23.77-2.07,5.31-2,7,2.13,9.39l4,2.31c.59,1.08-.6,3.43-1.67,3.62-4-1.78-8.62-3.74-12.78-5.35-3.49-1.36-7.68-2.88-12.14-4.38-1.25-1-.17-3.74,1-3.89l2.09.46c5.94,1.23,6.85.85,10.1-5.47,2.58-5,6.54-14.08,11.12-23.9,3.22-6.93,6.79-15.46,9-21.16,2.37-6,.59-8.57-3.5-11Z"/><path class="cls-2" d="M1042.85,2027.09c-2.73-.69-3.1-.67-4.31,1.26l-7.68,11.67a12,12,0,0,0-1.78,3.77c-.18.66,1.14,1.7,4.16,3l3.27,1.42c.49.95.07,3.57-1.19,3.81-3.93-1.23-8-2.27-12.77-3.57-3.87-1-6.53-1.31-11.8-2.63-1.08-1-.38-3.27.64-3.95l3.15.45c2.82.35,5.32.05,8.32-3.77s6.54-8.67,11.64-15.84l17.18-24.31c4.37-6.3,7.28-9.67,7.75-13,5.77.16,11.35-4.16,11.58-4.12,1.48.37,2,1.1,2,2.87.11,3.43.43,7.86,1.29,16.42l4.52,47.18c.71,7.23,1.09,10,5.13,11.76l4.16,1.78c.54.72.1,3.43-1.09,3.83-5.4-1.6-11.52-3.27-17.44-4.75-5.68-1.44-10.15-2.46-15.45-3.57a2.54,2.54,0,0,1,.75-3.92l3.78.37c2.73.22,3.38-.43,3.57-1.1s.07-3.62-.26-8l-.67-10.27c-.12-1.91-1-2.38-4.95-3.37Zm14.45-2.57c2.62.67,3.27.48,3.08-2.62l-.69-9.69c-.39-5.15-.93-11.63-1.36-14.21-1.56,2.31-5.35,7.7-8.32,12.34l-4.94,7.56c-1.79,2.72-1.29,3.2,1.55,3.92Z"/><path class="cls-2" d="M1177.22,2048.55c-7.45,13.08-11.46,21.66-14.83,27.71a8.08,8.08,0,0,1-4.16.45,4.93,4.93,0,0,1-3-1.24c-1-3.2-2.28-9.41-3.49-13.44l-13.87-48.15c-3.25-11.36-3.81-11.65-7.45-13l-4.54-1.64c-.79-1.35-.22-3.34.89-3.8,5.94.76,9.76,1.41,15.83,2.07,5.35.6,10.39,1,17.53,1.57.86.78.51,2.92-.3,3.87l-3.57.29c-2.14.22-3,.81-3.15,1.83s1.25,5.86,3.32,13l7.48,26.59,2.82,9.93c1.14-1.83,3.42-5.47,5.19-8.71l5.6-10.16c3.69-6.81,10.1-18.94,11.88-22.64a14.6,14.6,0,0,0,1.62-3.94c.08-.8-.8-1.35-3.52-2.34l-3.65-1.19c-.84-1-.6-3.39.88-3.8,5.46.82,9.88,1.42,14.32,1.91,4,.42,7.47.7,10.88.84.89.55.71,3.29-.18,3.88l-3.1.23c-3.33.21-5.4.79-7.18,3-3,3.45-6.58,9.48-11.54,18.21Z"/><path class="cls-2" d="M1234.82,2034.07c0,3.19.06,3.42,3.23,3.47l8.1.13c6.1.1,7.52-.68,8.78-6.13l.63-2.83c.84-.9,3.77-.85,4.34.18-.29,3.64-.47,7.72-.54,12.06s0,8.43.16,12.08c-.59,1-3.56,1.08-4.34,0l-.54-2.86c-1.09-5.48-2.49-6.41-8.59-6.54l-8.09-.13c-3.17,0-3.29.07-3.34,3.48l-.22,13.55c-.08,5.24.33,8.92,1.71,10.85s3.71,3,12.27,3.15c10.21.16,14.2-.11,20.86-12.88,1-1.24,3.89-.73,4.34.64-.6,5.94-3.53,15.09-5.22,18.14-6.22-.33-17.47-.6-27.1-.77l-15.25-.25c-5.64-.08-11.39-.06-20.21,0-.93-.69-.89-3.43.06-4l5.52-.71c5.3-.71,6-1.39,6.18-11.88l.67-42.47c.16-10.36-.54-11.05-5.8-12.16l-2.92-.6c-1-.7-.89-3.31.29-4,5.51.31,11.26.52,16.89.59l24.88.4c7.51.11,14.2.11,15.73-.09.09,1.82.78,10,1.25,17.66-.49,1.25-3.2,1.44-4.35.39-1.23-4-2.82-7.44-4.32-9.07-2.19-2.19-5.7-3.62-11.44-3.7l-9.39-.15c-3.87-.06-3.88.16-3.94,4.38Z"/><path class="cls-2" d="M1290.37,2022.26c-1-11.34-1.37-12.56-6.34-12.8l-3.2-.17c-1.22-.46-1.47-3.3-.12-4,8.71-1.36,17.79-2.64,28.89-3.63,9.94-.9,18.6-.2,23.28,2,7.13,3.25,11.14,8.6,11.8,15.86.91,10.1-5.72,15-10.85,18.13-1.12.67-1.06,1.35-.36,2.54,9.08,14.51,14.64,22.59,20.67,26.72a14.49,14.49,0,0,0,8.12,2.46,2.14,2.14,0,0,1,.73,2.91c-1.78,1-5.52,1.53-9.14,1.86-10.75,1-17.86-2.16-23.78-9.86a140.22,140.22,0,0,1-10.7-16.75c-1.68-2.94-3.63-3.68-6.54-3.41-4.09.36-4.3.59-4.09,2.88l1.26,14c.94,10.43,1.71,11.16,7,11.59l3.21.29c.87.49,1.11,3.21.36,4-6.22.33-11.6.7-17.24,1.19-5.84.53-11,1.1-17,1.88-1-.59-1.24-3.32-.36-4l3.11-.85c5.17-1.38,5.8-2.24,4.86-12.67Zm17.31,13c.36,4,.74,4.28,7.64,3.65,4.21-.38,6.57-1.62,8.59-4,1.82-2.1,3.71-5.94,3.11-12.62-.93-10.21-7.73-16.22-16.83-15.4-4.79.43-5,.79-4.5,6.24Z"/><path class="cls-2" d="M1394,2049.6c1.86,10.54,2.69,11.2,8.16,11.17h3.34c1,.5,1.38,3.1.59,3.94-6.27.88-12,1.78-17.39,2.72s-11.3,2.12-17.51,3.44c-1-.51-1.5-3.09-.69-3.92l3.14-1.14c5.16-1.83,5.71-2.74,3.85-13.28l-7.28-41.26c-1.86-10.54-2.7-11.2-8.17-11.17h-3.33c-1-.5-1.5-3.08-.7-3.92,6.28-.88,12.08-1.78,17.63-2.77s11.19-2.09,17.39-3.41c1,.51,1.49,3.09.69,3.92l-3.14,1.14c-5.15,1.83-5.71,2.74-3.85,13.28Z"/><path class="cls-2" d="M1429.48,1990.63c-.7-2.64-.84-3.19-3.57-2.47l-7,1.86c-8.28,2.19-9.51,7.22-10.78,16.16-1.19,1-3.4,1.37-4.45.12.36-8.22-.87-15.2-1.19-19.7a2.93,2.93,0,0,1,3.14-1c1.06,1.72,1.52,2.07,10.14-.21l42.21-11.16c7.49-2,9.16-2.55,9.57-5.13a3.06,3.06,0,0,1,1.38-.72,2.56,2.56,0,0,1,1.91.32c-.14,4,1.42,13.17,3.31,19.39-.31,1.13-3.31,2.17-4.11,1.44-3.79-6.54-6.75-11.3-15.26-9l-6.81,1.78c-2.72.72-3,1.14-2.21,4l12.84,48.54c2.71,10.24,3.62,10.93,8.92,10.25l4.68-.65c1,.45,1.64,3,1,3.85-7.44,1.73-13.14,3.12-18.24,4.47-5.45,1.44-11.3,3.11-19.2,5.43-1.08-.41-1.76-3-1-3.85l5-1.9c5-1.9,5.35-3.07,2.67-13.31Z"/><path class="cls-2" d="M1503.48,2011.16c-2.65,1-2.94,1.19-2.86,3.46l.24,14a13,13,0,0,0,.64,4.13c.23.64,1.9.75,5.19.16l3.5-.67c.93.5,2,2.88,1.14,3.82-3.93,1.19-7.9,2.64-12.57,4.23-3.74,1.37-6.16,2.62-11.23,4.48-1.45-.2-2.16-2.48-1.7-3.62l2.86-1.41c2.53-1.29,4.42-3,4.75-7.81s.52-10.86.68-19.65l.48-29.76c.07-7.66.6-12.09-.89-15.07,4.86-3.11,7-9.84,7.23-9.92,1.44-.53,2.3-.24,3.32,1.19,2,2.77,4.79,6.24,10.33,12.82L1544.9,2008c4.66,5.56,6.54,7.66,10.87,6.81l4.42-.89c.86.29,2,2.77,1.26,3.78-5.35,1.72-11.36,3.79-17.09,5.89-5.51,2-9.77,3.7-14.76,5.77a2.55,2.55,0,0,1-1.59-3.67l3.33-1.82c2.38-1.36,2.55-2.27,2.32-2.91s-2-3-4.76-6.5l-6.34-8.11c-1.19-1.51-2.14-1.4-6,0Zm10.48-10.27c2.53-.92,3-1.45,1.07-3.9l-6-7.62c-3.22-4-7.32-9.08-9.13-11,0,2.78-.08,9.36.07,14.86l.19,9c.06,3.25.73,3.37,3.48,2.38Z"/><path class="cls-2" d="M1556.74,1945.53c-1.19-2.46-1.42-3-4-1.78l-6.54,3.13c-7.72,3.69-8,8.86-7.6,17.88-1,1.22-3.08,2-4.36.94-1.15-8.15-3.66-14.78-4.83-19.14a2.81,2.81,0,0,1,1.24-1.22,2.73,2.73,0,0,1,1.68-.3c1.36,1.5,1.88,1.78,9.93-2.08l39.41-18.77c7-3.33,8.53-4.16,8.46-6.81a3.05,3.05,0,0,1,1.23-1,2.53,2.53,0,0,1,1.93,0c.59,4,3.83,12.68,6.84,18.43-.09,1.19-2.86,2.75-3.78,2.17-4.93-5.71-8.72-9.84-16.64-6l-6.36,3c-2.54,1.19-2.71,1.67-1.44,4.35l21.6,45.33c4.55,9.56,5.58,10.11,10.64,8.42l4.48-1.5c1,.27,2.17,2.63,1.72,3.6-7,3.08-12.33,5.49-17.1,7.77-5.08,2.42-10.55,5.14-17.86,8.91-1.15-.21-2.27-2.57-1.72-3.59l4.53-2.79c4.51-2.78,4.71-4,.16-13.57Z"/><path class="cls-2" d="M1614.51,1925.29c-5.61-9-6.57-9.18-11.59-7.25l-2.79,1.07c-1.16-.08-2.58-2.14-1.85-3.41,4.89-2.79,9.92-5.8,14.7-8.79s9.69-6.19,14.35-9.37c1.16.08,2.48,2.2,2.05,3.28l-2.15,1.88c-4,3.57-4.11,4.72,1.51,13.68l13.94,22.29c7.06,11.3,16.15,22.95,31.27,13.49,12.73-8,9.86-21.2,1.59-34.43l-7.31-11.68c-4.89-7.82-9.87-14.91-12.54-16.73-2.16-1.47-4.72-.69-7.72.51l-3,1.19c-1.27-.27-2.28-2.33-2-3.28,5.5-3.17,9.44-5.5,13.52-8,3.67-2.3,7.3-4.7,11-7.26,1,.21,2.37,2,2,3.29l-1.55,1.51c-2.22,2.19-3.76,4-3.38,6.53.47,3.2,4.67,10.79,9.55,18.6l6.77,10.82c5.67,9.07,10,17.94,8.18,27.25-1.54,7.27-7.3,14.23-15.36,19.27-7.56,4.72-15,7.8-23.08,6.91-7.77-.91-14.42-6.69-21-17.24Z"/><path class="cls-2" d="M1674.36,1873c-1.31-.1-3.06-2.2-2.28-3.29,3.21-2.37,7.13-5.52,11.58-9.2,3-2.48,5.58-4.66,8.62-7.63,4.51,5.43,12.11,8.14,22.93,13.08l16.23,7.39c2.27,1.07,10.1,3.88,13.19,5-.6-3.08-1.39-7-3.26-14.18l-3.42-13.45c-3.18-12.62-4.79-19.13-9.07-28.31a108.86,108.86,0,0,0,9.14-7.18c3-2.47,7-6,10.15-8.91,1.43-.31,2.82,1.36,2.83,2.83l-2.26,2.61c-3.18,3.69-4.11,6.25-.25,10.89,15,18,23.07,27.31,32.79,37.89,3.53,3.87,5.64,5.67,9.51,3.18l3.18-2c1.31.09,3,2.11,2.38,3.21-4.3,3.28-8.25,6.42-12.67,10.1-4,3.38-8.91,7.6-13.12,11.38-1.45.46-3.21-1.47-2.82-2.84l2.41-2.6c3.71-4,2.84-5-1.61-10.37L1749.41,1848l-8.32-10-.18.15c5,19.56,9.95,40.18,16.32,59.92a3.87,3.87,0,0,1-1.3,2.11,6.38,6.38,0,0,1-2.78,1.43c-12.55-7.92-41.71-20.38-56.24-27.55l-.18.16c4.37,6,7.49,9.91,11.19,14.53,4.65,5.76,11.85,14.59,16.22,19.83,3.64,4.38,5.21,5.16,9.25,2.67l3.95-2.37c1.23,0,2.73,2.17,2.38,3.21-3.48,2.6-7.43,5.74-10.86,8.6-2.88,2.4-6.24,5.35-9.7,8.52-1.46.63-3.36-1.65-2.91-2.76l1.4-1.61c3.94-4.62,4-5.6.07-11.47-3.12-4.66-9.19-12.48-15.57-21.26-4.52-6.16-10.25-13.4-14.18-18.12-4.16-5-7.23-4.65-11.35-2.26Z"/><circle class="cls-3" cx="1258.97" cy="1252.89" r="866.64"/><polygon class="cls-2" points="1195.22 418.63 1195.21 418.63 1195.22 418.64 1195.22 418.63"/><polygon class="cls-2" points="1340.47 459.36 1340.47 459.36 1340.47 459.36 1340.47 459.36"/><path class="cls-2" d="M299.06,1183.5c-3-10.66-8-20.4-13.41-30-5.48-9.75-10.88-19.5-12.48-30.81-.94-6.54-.55-12.81,2.53-18.81,3.94-7.68,9.82-13.83,15.45-20.21,3.52-4,7.06-7.9,10.58-11.85l-.26-.38h-.05a7.19,7.19,0,0,0-1.11.36s-20.21,6.18-26,11.18a5.35,5.35,0,0,0-2.43-6.83l-.06,0a8.86,8.86,0,0,0-1.07-.53,10.75,10.75,0,0,0-3.26-.66,6.52,6.52,0,0,0-1.08.06,82.13,82.13,0,0,0-12.34,2.44c-12.62,3.94-22.47,12-31,21.83-2.53,3-4.83,6.1-7.23,9.15l.53.53h.06A66.94,66.94,0,0,1,243,1092.11a10.7,10.7,0,0,1-1.53,2.06,32.44,32.44,0,0,0-8,15.07,67.92,67.92,0,0,0,1.13,34.15s3.94,12.48,6.54,32.27h0l.19,1.71h0l.16,1.34h0c0,.31.06.65.1,1L242,1183h0c3,29.72,2.14,72.48-16.76,115-8,12.11-14,25-15.67,39.82-1.22,10.86.24,21.28,5.55,30.92,1.56,2.83,3.62,5.4,5.46,8.09v-.1l.07.1c-.2-4.84-1.14-9.29-1.51-13.79a102.08,102.08,0,0,1-.19-13.88,23,23,0,0,1,4.05-12.48c.77,6.86,1.25,13.5,2.31,20.06a50.32,50.32,0,0,0,12.51,26.38,46.61,46.61,0,0,0,19.33,12.65l-.05,0,.1,0a9.05,9.05,0,0,0-1.91-1.9c-21-17-28.34-41.67-19.72-66.95,5.27-15.46,14.26-28.61,25.52-40.37,8-8.35,16.28-16.54,23.47-25.56C302.93,1237.85,307.13,1211.8,299.06,1183.5Z"/><path class="cls-2" d="M148.77,1136c12.2.19,23.18,4.43,33.56,10.4,14.61,8.39,27.42,19.2,40.11,30.15,6.4,5.54,13.07,10.67,21.25,13.33,7.13,2.3,13.91,2,20-2.88,4.64-3.71,7.59-8.56,9.6-14.65-9.54,7.07-15.58,6.88-25.68.25a52.67,52.67,0,0,1-6.91-5.35c-7.17-6.66-14.09-13.6-21.36-20.14-12.94-11.65-27.13-21.35-43.85-26.87-15.82-5.22-31.61-5.14-47.21.69-10.49,3.93-19.62,10.11-27.87,17.68a111.53,111.53,0,0,0-23.69,30.58c.35-.22.69-.44,1-.68,15.26-11.13,30.63-22,48.6-28.61A61.89,61.89,0,0,1,148.77,1136Z"/><path class="cls-2" d="M277.25,1188.51c-1.08,4.76-3.07,8.32-6.54,10.85-8.1,5.82-17.07,6.7-26.47,4.16-11-3-20.42-9-29.26-15.85-10.7-8.33-21.11-17.06-31.64-25.61-6.91-5.61-14.46-9.85-23.4-11.25-11.58-1.82-22.74,0-33.59,4.06-4.45,1.67-8.79,3.63-13.18,5.46a3.72,3.72,0,0,0,2.31,0c4.53-.93,9-2.33,13.6-2.68,13.94-1.08,26.9,2.22,37.89,11,10,8,19.71,16.57,29.32,25.13s19.54,16.84,31.78,21.6,24.41,6.83,36.89.82C274.87,1211.49,281.33,1199.76,277.25,1188.51Z"/><path class="cls-2" d="M223.17,1285.61c-27.44,8.5-36.16,37.54-22.31,62.33C198.12,1323.48,206.28,1303.19,223.17,1285.61Z"/><path class="cls-2" d="M268.75,1378.66c-16.14-18.58-20.94-39.92-17-64C234,1337.26,243.27,1366.12,268.75,1378.66Z"/><path class="cls-2" d="M185.79,1205.42l.06-.06L174.14,1195q-4.78-3.91-9.59-7.8a60.35,60.35,0,0,0-10.41-6.92c-4.95-2.14-25-9.72-36.47,2.28l-.43.15a50.78,50.78,0,0,1,30.91,11.13c10,8,19.72,16.56,29.32,25.12s19.54,16.84,31.79,21.6c13.16,3.83,22.28-7.09,22.28-7.09C216.38,1234.63,185.79,1205.42,185.79,1205.42Z"/><path class="cls-2" d="M2216.4,1183.5c3-10.66,8-20.4,13.41-30,5.47-9.75,10.87-19.5,12.48-30.81.94-6.54.55-12.81-2.53-18.81-3.94-7.68-9.83-13.83-15.46-20.21-3.51-4-7.05-7.9-10.58-11.85l.26-.38h.06a7.56,7.56,0,0,1,1.11.36s20.21,6.18,26,11.18a5.34,5.34,0,0,1,2.42-6.83l.07,0a8.19,8.19,0,0,1,1.07-.53,10.63,10.63,0,0,1,3.26-.66,6.52,6.52,0,0,1,1.08.06,82.13,82.13,0,0,1,12.34,2.44c12.62,3.94,22.46,12,31,21.83,2.53,3,4.82,6.1,7.23,9.15l-.53.53H2299a66.9,66.9,0,0,0-26.56-16.84,10.3,10.3,0,0,0,1.53,2.06,32.51,32.51,0,0,1,8,15.07,67.81,67.81,0,0,1-1.12,34.15s-3.95,12.48-6.54,32.27h0l-.2,1.71h0l-.15,1.34h0c0,.31-.07.65-.1,1l-.39,3.28h0c-3,29.72-2.14,72.48,16.76,115,7.95,12.11,14,25,15.66,39.82,1.19,10.86-.23,21.28-5.55,30.92-1.56,2.83-3.62,5.4-5.45,8.09v-.1l-.07.1c.2-4.84,1.14-9.29,1.51-13.79a103.72,103.72,0,0,0,.18-13.88,22.93,22.93,0,0,0-4.05-12.48c-.76,6.86-1.24,13.5-2.3,20.06a50.4,50.4,0,0,1-12.51,26.38,46.67,46.67,0,0,1-19.33,12.65l0,0-.1,0a9.3,9.3,0,0,1,1.91-1.9c21-17,28.34-41.67,19.73-66.95-5.27-15.46-14.27-28.61-25.52-40.37-8-8.35-16.28-16.54-23.48-25.56C2212.52,1237.85,2208.32,1211.8,2216.4,1183.5Z"/><path class="cls-2" d="M2366.68,1136c-12.2.19-23.18,4.43-33.55,10.4-14.61,8.39-27.43,19.2-40.11,30.15-6.41,5.54-13.08,10.67-21.25,13.33-7.14,2.3-13.91,2-20-2.88-4.63-3.71-7.59-8.56-9.6-14.65,9.52,7.07,15.58,6.88,25.68.25a52.67,52.67,0,0,0,6.91-5.35c7.18-6.66,14.1-13.6,21.36-20.14,12.94-11.65,27.13-21.35,43.85-26.87a69.34,69.34,0,0,1,47.22.69,85.56,85.56,0,0,1,27.87,17.68,111.63,111.63,0,0,1,23.68,30.61c-.34-.22-.68-.44-1-.68-15.26-11.13-30.63-22-48.59-28.61A62,62,0,0,0,2366.68,1136Z"/><path class="cls-2" d="M2238.21,1188.51c1.08,4.76,3.06,8.32,6.53,10.85,8.11,5.82,17.07,6.7,26.48,4.16,11-3,20.41-9,29.25-15.85,10.7-8.33,21.11-17.06,31.65-25.61,6.9-5.61,14.45-9.85,23.39-11.25,11.59-1.82,22.74,0,33.59,4.06,4.45,1.67,8.8,3.63,13.19,5.46a3.75,3.75,0,0,1-2.32,0c-4.53-.93-9-2.33-13.6-2.68-13.94-1.08-26.89,2.22-37.89,11-10,8-19.7,16.57-29.31,25.13s-19.54,16.84-31.79,21.6-24.4,6.83-36.89.82C2240.59,1211.49,2234.13,1199.76,2238.21,1188.51Z"/><path class="cls-2" d="M2292.28,1285.61c27.45,8.5,36.17,37.54,22.31,62.33C2317.33,1323.48,2309.17,1303.19,2292.28,1285.61Z"/><path class="cls-2" d="M2246.71,1378.66c16.14-18.58,20.93-39.92,17-64C2281.49,1337.26,2272.18,1366.12,2246.71,1378.66Z"/><path class="cls-2" d="M2329.67,1205.42l-.07-.06,11.71-10.33q4.79-3.91,9.59-7.8a61.13,61.13,0,0,1,10.41-6.92c5-2.14,25-9.72,36.47,2.28l.43.15a51,51,0,0,0-30.94,11.13c-10.05,8-19.71,16.56-29.32,25.12s-19.54,16.84-31.78,21.6c-13.16,3.83-22.29-7.09-22.29-7.09C2299.08,1234.63,2329.67,1205.42,2329.67,1205.42Z"/></g></g></g></svg>